<?xml version="1.0" encoding="UTF-8" standalone="no"?>
<!-- Created by diasvg.py -->
<svg
   xmlns:dc="http://purl.org/dc/elements/1.1/"
   xmlns:cc="http://web.resource.org/cc/"
   xmlns:rdf="http://www.w3.org/1999/02/22-rdf-syntax-ns#"
   xmlns:svg="http://www.w3.org/2000/svg"
   xmlns="http://www.w3.org/2000/svg"
   xmlns:sodipodi="http://inkscape.sourceforge.net/DTD/sodipodi-0.dtd"
   xmlns:inkscape="http://www.inkscape.org/namespaces/inkscape"
   width="5cm"
   height="5cm"
   viewBox="0.057 26.871 1.056 27.872"
   id="svg1342"
   sodipodi:version="0.32"
   inkscape:version="0.43"
   sodipodi:docname="unilogogray-inkscape.svg"
   sodipodi:docbase="/tdata/Web/idlebox.net/2006/SVG-UniKa-Logo"
   version="1.0">
  <metadata
     id="metadata1357">
    <rdf:RDF>
      <cc:Work
         rdf:about="">
        <dc:format>image/svg+xml</dc:format>
        <dc:type
           rdf:resource="http://purl.org/dc/dcmitype/StillImage" />
      </cc:Work>
    </rdf:RDF>
  </metadata>
  <defs
     id="defs1355" />
  <sodipodi:namedview
     inkscape:window-height="763"
     inkscape:window-width="1071"
     inkscape:pageshadow="2"
     inkscape:pageopacity="0.0"
     borderopacity="1.0"
     bordercolor="#666666"
     pagecolor="#ffffff"
     id="base"
     inkscape:zoom="1"
     inkscape:cx="16.573332"
     inkscape:cy="138.08606"
     inkscape:window-x="112"
     inkscape:window-y="141"
     inkscape:current-layer="g1307" />
  <g
     id="g1307"
     transform="matrix(2.213877,0,0,2.213877,11.85271,-35.27)">
    <path
       d="M -10.401692,31.962446 L -7.3653084,28.926063 L -2.8319664,28.926063 L 0.20441732,31.962446 L 0.20441732,36.527638 L -2.8319664,39.553405 L -7.3653084,39.553405 L -10.401692,36.527638 L -10.401692,31.962446 M -7.3653084,36.527638 L -2.8319664,36.527638 L -2.8319664,31.962446 L -7.3653084,31.962446 L -7.3653084,36.527638"
       style="fill:#909090;fill-opacity:1;stroke:none;stroke-width:0.001"
       id="polyline1344" />
    <polyline
       style="fill:#000000;fill-opacity:1;stroke:#000000;stroke-width:0.00004255"
       transform="matrix(10.61673,0,0,10.61673,-11.00685,-256.356)"
       id="polyline1348"
       points="0.914,27.015 1.056,27.157 1.056,27.587 0.914,27.728 0.914,27.015 " />
    <polyline
       style="fill:#000000;fill-opacity:1;stroke:#000000;stroke-width:0.00004255"
       transform="matrix(10.61673,0,0,10.61673,-11.00685,-256.356)"
       id="polyline1350"
       points="0.199,27.728 0.343,27.872 0.770,27.872 0.914,27.728 0.199,27.728 " />
    <polyline
       style="fill:#000000;fill-opacity:1;stroke:#000000;stroke-width:0.00004255"
       transform="matrix(10.61673,0,0,10.61673,-11.00685,-256.356)"
       id="polyline1352"
       points="0.343,27.157 0.770,27.157 0.914,27.015 0.199,27.015 0.199,27.728 0.343,27.587 0.343,27.157 " />
  </g>
</svg>
