<?xml version="1.0" encoding="UTF-8" standalone="no"?>
<!-- Created with Inkscape (http://www.inkscape.org/) -->
<svg
   xmlns:dc="http://purl.org/dc/elements/1.1/"
   xmlns:cc="http://creativecommons.org/ns#"
   xmlns:rdf="http://www.w3.org/1999/02/22-rdf-syntax-ns#"
   xmlns:svg="http://www.w3.org/2000/svg"
   xmlns="http://www.w3.org/2000/svg"
   xmlns:xlink="http://www.w3.org/1999/xlink"
   xmlns:sodipodi="http://sodipodi.sourceforge.net/DTD/sodipodi-0.dtd"
   xmlns:inkscape="http://www.inkscape.org/namespaces/inkscape"
   height="83.385666"
   id="svg7134"
   inkscape:version="0.46"
   sodipodi:docbase="/home/jeff"
   sodipodi:docname="shovel-linedrawing.svg"
   sodipodi:version="0.32"
   width="372.04944"
   inkscape:output_extension="org.inkscape.output.svg.inkscape"
   version="1.0">
  <metadata
     id="metadata3">
    <rdf:RDF>
      <cc:Work
         rdf:about="">
        <dc:title>Simple Shovel</dc:title>
        <dc:description />
        <dc:subject>
          <rdf:Bag>
            <rdf:li>shovel</rdf:li>
            <rdf:li>tools</rdf:li>
          </rdf:Bag>
        </dc:subject>
        <dc:publisher>
          <cc:Agent
             rdf:about="http://www.openclipart.org/">
            <dc:title>Open Clip Art Library</dc:title>
          </cc:Agent>
        </dc:publisher>
        <dc:creator>
          <cc:Agent>
            <dc:title>Jeff Simpson</dc:title>
          </cc:Agent>
        </dc:creator>
        <dc:rights>
          <cc:Agent>
            <dc:title>Jeff Simpson</dc:title>
          </cc:Agent>
        </dc:rights>
        <dc:date />
        <dc:format>image/svg+xml</dc:format>
        <dc:type
           rdf:resource="http://purl.org/dc/dcmitype/StillImage" />
        <cc:license
           rdf:resource="http://web.resource.org/cc/PublicDomain" />
        <dc:language>en</dc:language>
      </cc:Work>
      <cc:License
         rdf:about="http://web.resource.org/cc/PublicDomain">
        <cc:permits
           rdf:resource="http://web.resource.org/cc/Reproduction" />
        <cc:permits
           rdf:resource="http://web.resource.org/cc/Distribution" />
        <cc:permits
           rdf:resource="http://web.resource.org/cc/DerivativeWorks" />
      </cc:License>
    </rdf:RDF>
  </metadata>
  <defs
     id="defs3">
    <linearGradient
       id="linearGradient3419">
      <stop
         id="stop3421"
         offset="0"
         style="stop-color:#8d8d8d;stop-opacity:1;" />
      <stop
         style="stop-color:#3a3a3a;stop-opacity:1;"
         offset="0.49999991"
         id="stop3425" />
      <stop
         id="stop3423"
         offset="1"
         style="stop-color:#a8a8a8;stop-opacity:1;" />
    </linearGradient>
    <linearGradient
       id="linearGradient3399">
      <stop
         id="stop3401"
         offset="0"
         style="stop-color:#4c2f00;stop-opacity:1;" />
      <stop
         id="stop3403"
         offset="1"
         style="stop-color:#b15d0a;stop-opacity:1;" />
    </linearGradient>
    <linearGradient
       id="linearGradient3391">
      <stop
         style="stop-color:#ffffff;stop-opacity:1;"
         offset="0"
         id="stop3393" />
      <stop
         style="stop-color:#ffffff;stop-opacity:0;"
         offset="1"
         id="stop3395" />
    </linearGradient>
    <linearGradient
       id="linearGradient3358">
      <stop
         style="stop-color:#1c1c1c;stop-opacity:1;"
         offset="0"
         id="stop3360" />
      <stop
         style="stop-color:#a8a8a8;stop-opacity:1;"
         offset="1"
         id="stop3362" />
    </linearGradient>
    <inkscape:perspective
       sodipodi:type="inkscape:persp3d"
       inkscape:vp_x="0 : 186.03435 : 1"
       inkscape:vp_y="0 : 1000 : 0"
       inkscape:vp_z="83.335243 : 186.03435 : 1"
       inkscape:persp3d-origin="41.667622 : 124.0229 : 1"
       id="perspective12" />
    <radialGradient
       inkscape:collect="always"
       xlink:href="#linearGradient3358"
       id="radialGradient3372"
       cx="395.17102"
       cy="542.68115"
       fx="395.17102"
       fy="542.68115"
       r="46.56191"
       gradientTransform="matrix(0,0.8827184,-3.7295962,-1.2538018e-6,2411.9082,113.06303)"
       gradientUnits="userSpaceOnUse" />
    <linearGradient
       inkscape:collect="always"
       xlink:href="#linearGradient3399"
       id="linearGradient3407"
       x1="446.4845"
       y1="474.08533"
       x2="446.4845"
       y2="449.16019"
       gradientUnits="userSpaceOnUse"
       spreadMethod="reflect" />
    <linearGradient
       inkscape:collect="always"
       xlink:href="#linearGradient3419"
       id="linearGradient3417"
       x1="679.18994"
       y1="434.32092"
       x2="679.18994"
       y2="502.2077"
       gradientUnits="userSpaceOnUse"
       spreadMethod="pad" />
  </defs>
  <sodipodi:namedview
     bordercolor="#666666"
     borderopacity="1.0"
     id="base"
     inkscape:current-layer="layer1"
     inkscape:cx="143.3045"
     inkscape:cy="74.69244"
     inkscape:document-units="px"
     inkscape:pageopacity="0.0"
     inkscape:pageshadow="2"
     inkscape:window-height="1135"
     inkscape:window-width="1920"
     inkscape:window-x="0"
     inkscape:window-y="0"
     inkscape:zoom="2"
     pagecolor="#ffffff"
     showgrid="false" />
  <g
     id="layer1"
     inkscape:groupmode="layer"
     inkscape:label="Layer 1"
     transform="translate(-359.63755,-421.39345)">
    <g
       id="g3337">
      <path
         sodipodi:nodetypes="ccscccccscz"
         d="M 730.4903,463.07285 C 730.4903,469.10034 730.8059,484.81802 730.6073,491.87647 C 705.07499,491.4653 709.14281,484.11494 702.3112,472.28224 C 698.9088,466.38912 548.01707,468.50311 463.12086,469.02782 C 440.03606,471.02629 448.74097,487.04932 451.78824,502.61418 C 400.10473,508.4842 363.16442,491.10884 360.66442,463.07285 C 363.16442,435.03686 400.10473,417.6615 451.78824,423.53152 C 448.74097,439.09638 440.03606,455.11941 463.12086,457.11788 C 548.01707,457.64259 698.9088,459.75658 702.3112,453.86346 C 709.14281,442.03076 705.07499,434.6804 730.6073,434.26923 C 730.8059,441.32768 730.4903,457.04536 730.4903,463.07285 z"
         style="fill:#ffffff;fill-opacity:1;fill-rule:evenodd;stroke:#000000;stroke-width:2;stroke-linecap:butt;stroke-linejoin:miter;stroke-miterlimit:4;stroke-dasharray:none;stroke-opacity:1"
         id="path5530" />
      <path
         sodipodi:nodetypes="ccccc"
         d="M 711.81563,463.07285 C 711.95183,481.38009 720.54941,480.05373 723.58541,480.29594 C 723.66971,476.29956 723.55641,462.73802 723.55641,463.07285 C 723.55641,463.40768 723.66971,449.84614 723.58541,445.84976 C 720.54941,446.09197 711.95183,444.76561 711.81563,463.07285 z"
         style="fill:none;fill-opacity:0.75;fill-rule:evenodd;stroke:#000000;stroke-width:2;stroke-linecap:butt;stroke-linejoin:miter;stroke-miterlimit:4;stroke-dasharray:none;stroke-opacity:1"
         id="path5545" />
      <path
         sodipodi:nodetypes="cszsc"
         d="M 447.90329,447.80781 C 447.90329,459.80955 409.27123,460.80154 408.00044,460.98426 C 406.72966,461.16698 406.8276,461.92479 406.8276,462.48092 C 406.8276,463.06857 406.72966,463.79486 408.00044,463.97758 C 409.27123,464.1603 447.90329,465.15229 447.90329,477.15403"
         style="color:#000000;fill:none;fill-opacity:1;fill-rule:nonzero;stroke:#000000;stroke-width:1.51179683;stroke-linecap:round;stroke-linejoin:round;marker:none;marker-start:none;marker-mid:none;marker-end:none;stroke-miterlimit:4;stroke-dasharray:none;stroke-dashoffset:0;stroke-opacity:1;visibility:visible;display:inline;overflow:visible;enable-background:accumulate"
         id="path3213" />
      <path
         sodipodi:nodetypes="cs"
         id="path3217"
         d="M 684.02279,456.54433 C 680.10845,456.54433 680.61352,469.41656 683.51771,469.55005"
         style="color:#000000;fill:none;fill-opacity:1;fill-rule:nonzero;stroke:#000000;stroke-width:1.77165353;stroke-linecap:round;stroke-linejoin:round;marker:none;marker-start:none;marker-mid:none;marker-end:none;stroke-miterlimit:4;stroke-dasharray:none;stroke-dashoffset:0;stroke-opacity:1;visibility:visible;display:inline;overflow:visible;enable-background:accumulate" />
    </g>
    <path
       id="path3345"
       style="fill:url(#radialGradient3372);fill-opacity:1;fill-rule:evenodd;stroke:#000000;stroke-width:2;stroke-linecap:butt;stroke-linejoin:miter;stroke-miterlimit:4;stroke-dasharray:none;stroke-opacity:1"
       d="M 448.2104,477.44508 C 448.2104,465.44334 409.27123,464.31467 408.00044,464.13195 C 406.72966,463.94923 406.8276,463.22294 406.8276,462.63529 C 406.8276,462.07916 406.72966,461.32135 408.00044,461.13863 C 409.27123,460.95591 447.90329,459.96392 447.92457,447.89819 C 446.56079,441.36457 450.07191,432.45256 451.78824,423.68589 C 400.10473,417.81587 363.16442,435.19123 360.66442,463.22722 C 363.16442,491.26321 400.10473,508.63857 451.78824,502.76855 C 449.97862,493.52538 446.16803,483.97836 448.2104,477.44508 z"
       sodipodi:nodetypes="csssccccc" />
    <path
       id="path3376"
       style="fill:url(#linearGradient3407);fill-opacity:1;fill-rule:evenodd;stroke:#000000;stroke-width:2;stroke-linecap:butt;stroke-linejoin:miter;stroke-miterlimit:4;stroke-dasharray:none;stroke-opacity:1"
       d="M 408.00044,463.84659 C 409.27123,464.02931 448.23922,465.22443 448.23871,477.22923 C 449.65618,472.80119 453.79375,469.70429 463.12086,468.89683 C 530.75439,468.47881 640.27326,467.05213 683.62685,469.44397 C 678.90554,464.30426 682.10561,456.40783 684.1633,456.39809 C 641.23436,458.84412 531.05091,457.40674 463.12086,456.98689 C 453.06493,456.11634 449.04124,452.58456 447.92887,447.64656 C 447.90329,459.70618 409.27123,460.67055 408.00044,460.85327 C 406.72966,461.03599 406.8276,461.7938 406.8276,462.34993 C 406.8276,462.93758 406.72966,463.66387 408.00044,463.84659"
       sodipodi:nodetypes="cccccccccc" />
    <path
       d="M 711.81563,463.03806 C 711.95183,481.3453 720.54941,480.01894 723.58541,480.26115 C 723.66971,476.26477 723.55641,462.70323 723.55641,463.03806 C 723.55641,463.37289 723.66971,449.81135 723.58541,445.81497 C 720.54941,446.05718 711.95183,444.73082 711.81563,463.03806 z M 684.0858,456.4987 C 680.17147,456.4987 680.61352,469.38177 683.56481,469.53672 C 694.7787,470.17547 701.61679,471.04469 702.3112,472.24745 C 709.14281,484.08015 705.07499,491.43051 730.6073,491.84168 C 730.8059,484.78323 730.4903,469.06555 730.4903,463.03806 C 730.4903,457.01057 730.8059,441.29289 730.6073,434.23444 C 705.07499,434.64561 709.14281,441.99597 702.3112,453.82867 C 701.62799,455.01203 694.93466,455.88337 684.0858,456.4987 z"
       style="fill:url(#linearGradient3417);fill-opacity:1.0;fill-rule:evenodd;stroke:#000000;stroke-width:2;stroke-linecap:butt;stroke-linejoin:miter;stroke-miterlimit:4;stroke-dasharray:none;stroke-opacity:1"
       id="path3389"
       sodipodi:nodetypes="cccsccccccscc" />
  </g>
</svg>
