<?xml version="1.0" encoding="UTF-8" standalone="no"?>
<!-- Created with Inkscape (http://www.inkscape.org/) -->
<svg
   xmlns:dc="http://purl.org/dc/elements/1.1/"
   xmlns:cc="http://web.resource.org/cc/"
   xmlns:rdf="http://www.w3.org/1999/02/22-rdf-syntax-ns#"
   xmlns:svg="http://www.w3.org/2000/svg"
   xmlns="http://www.w3.org/2000/svg"
   xmlns:xlink="http://www.w3.org/1999/xlink"
   xmlns:sodipodi="http://sodipodi.sourceforge.net/DTD/sodipodi-0.dtd"
   xmlns:inkscape="http://www.inkscape.org/namespaces/inkscape"
   width="250"
   height="250"
   id="svg2"
   sodipodi:version="0.32"
   inkscape:version="0.45.1"
   version="1.0"
   sodipodi:docbase="/tdata/Web/idlebox.net/2007/flex-bison-cpp-example"
   sodipodi:docname="drawing.svg"
   inkscape:output_extension="org.inkscape.output.svg.inkscape"
   inkscape:export-xdpi="288"
   inkscape:export-ydpi="288"
   inkscape:export-filename="/tdata/Web/idlebox.net/2007/flex-bison-cpp-example/drawing.png">
  <sodipodi:namedview
     id="base"
     pagecolor="#ffffff"
     bordercolor="#666666"
     borderopacity="1.0"
     gridtolerance="10000"
     guidetolerance="10"
     objecttolerance="10"
     inkscape:pageopacity="1"
     inkscape:pageshadow="2"
     inkscape:zoom="1.4"
     inkscape:cx="124.07616"
     inkscape:cy="176.5718"
     inkscape:document-units="px"
     inkscape:current-layer="layer1"
     width="250px"
     height="250px"
     units="px"
     inkscape:window-width="1065"
     inkscape:window-height="799"
     inkscape:window-x="73"
     inkscape:window-y="69" />
  <defs
     id="defs4" />
  <metadata
     id="metadata7">
    <rdf:RDF>
      <cc:Work
         rdf:about="">
        <dc:format>image/svg+xml</dc:format>
        <dc:type
           rdf:resource="http://purl.org/dc/dcmitype/StillImage" />
      </cc:Work>
    </rdf:RDF>
  </metadata>
  <g
     inkscape:label="Layer 1"
     id="layer1"
     inkscape:groupmode="layer">
    <image
       id="image2236"
       width="176.4514"
       y="121.51918"
       xlink:href="bison.png"
       x="73.155769"
       height="124.30299" />
    <text
       style="font-size:72.07358551px;font-style:normal;font-weight:normal;text-align:start;text-anchor:start;fill:#000000;fill-opacity:1;stroke:none;stroke-width:1px;stroke-linecap:butt;stroke-linejoin:miter;stroke-opacity:1;font-family:LMTypewriter10"
       id="text2243"
       transform="scale(1.0172714,0.9830218)"
       y="59.098808"
       x="10.151079"
       xml:space="preserve"><tspan
         style="font-weight:bold;font-family:Courier New"
         sodipodi:role="line"
         id="tspan2245"
         y="59.098808"
         x="10.151079">C<tspan
   style="font-size:59.5566864px;font-weight:bold;font-family:Courier New"
   id="tspan2247">++</tspan></tspan></text>
    <path
       style="font-size:65.76050568px;font-style:normal;font-weight:normal;text-align:start;text-anchor:start;fill:#000000;fill-opacity:1;stroke:none;stroke-width:1px;stroke-linecap:butt;stroke-linejoin:miter;stroke-opacity:1;font-family:LMTypewriter10"
       d="M 63.873355,103.0593 C 63.873355,103.0593 61.81932,100.04609 61.81932,100.04609 C 60.875574,98.661639 59.764661,98.882147 56.92306,100.81921 C 56.92306,100.81921 24.502952,126.3641 24.502952,126.3641 C 23.231763,127.44322 21.086633,129.26424 22.13911,130.50404 C 23.191589,131.74384 25.336724,129.92283 26.607912,128.84371 C 26.607912,128.84371 28.991391,126.82035 28.991391,126.82035 C 28.991391,126.82035 44.268295,144.8163 44.268295,144.8163 C 44.268295,144.8163 41.884816,146.83965 41.884816,146.83965 C 40.613629,147.91877 38.468497,149.73979 39.520976,150.9796 C 40.573455,152.21941 42.718587,150.39838 43.989775,149.31926 C 43.989775,149.31926 56.111016,139.15319 56.111016,139.15319 C 57.317997,138.15973 59.505374,136.43543 58.491768,135.16366 C 57.478163,133.89187 55.170501,135.71465 54.043985,136.64188 C 54.043985,136.64188 50.181644,139.82091 50.181644,139.82091 C 50.181644,139.82091 43.698681,131.94448 43.698681,131.94448 C 43.698681,131.94448 54.201679,123.47899 54.201679,123.47899 C 55.279219,124.88837 55.877857,125.67139 59.023902,123.2661 C 62.169945,120.86082 61.415061,120.00409 60.864974,119.24639 C 60.864974,119.24639 58.201397,115.57749 58.201397,115.57749 C 57.651311,114.81977 56.842099,113.89214 53.696056,116.29743 C 50.550011,118.70269 51.148644,119.48569 52.226186,120.89509 C 52.226186,120.89509 41.631649,129.43315 41.631649,129.43315 C 41.631649,129.43315 35.180005,121.59479 35.180005,121.59479 C 35.180005,121.59479 55.64967,105.67667 55.64967,105.67667 C 55.64967,105.67667 57.126219,107.71053 57.126219,107.71053 C 57.676304,108.46823 58.522615,109.27132 61.794763,107.04079 C 65.066913,104.81023 64.400742,103.83297 63.873355,103.0593 M 121.49333,103.65593 C 121.49333,103.65593 121.00348,99.297524 121.00348,99.297524 C 120.8879,98.269146 120.99367,97.052379 117.07795,97.643088 C 113.16222,98.233787 113.60899,99.325237 113.80106,100.34212 C 113.80106,100.34212 114.40474,103.53804 114.40474,103.53804 C 114.40474,103.53804 94.026539,110.21213 94.026539,110.21213 C 94.026539,110.21213 83.966077,88.857887 83.966077,88.857887 C 83.966077,88.857887 89.541062,86.450228 89.541062,86.450228 C 90.989927,85.863394 94.151704,84.685428 93.58641,83.160595 C 93.021118,81.635762 89.768914,82.848777 88.32005,83.435612 C 88.32005,83.435612 71.511567,91.61138 71.511567,91.61138 C 70.149439,92.378378 67.272643,94.083695 68.100696,95.483375 C 68.928748,96.883055 71.836112,95.161377 73.107431,94.445516 C 73.107431,94.445516 76.355096,92.656758 76.355096,92.656758 C 76.355096,92.656758 87.465744,113.48407 87.465744,113.48407 C 87.465744,113.48407 84.689537,115.01445 84.689537,115.01445 C 83.327409,115.78145 80.948068,117.19968 81.776121,118.59936 C 82.604173,119.99905 85.01408,118.56444 86.285399,117.84858 C 86.285399,117.84858 117.84913,106.24818 117.84913,106.24818 C 121.24961,105.7352 121.68597,105.36991 121.49333,103.65593 M 180.50187,84.93755 C 180.50187,84.93755 178.17217,81.221538 178.17217,81.221538 C 177.67481,80.428234 176.88782,79.575499 173.46477,81.566693 C 170.04173,83.55788 170.36604,84.643879 170.80815,85.469234 C 170.80815,85.469234 172.34391,88.336259 172.34391,88.336259 C 172.34391,88.336259 144.41928,99.258443 144.41928,99.258443 C 144.41928,99.258443 141.78283,88.894569 141.78283,88.894569 C 141.78283,88.894569 154.41164,84.855013 154.41164,84.855013 C 155.05985,86.506373 155.61082,87.465753 159.23398,85.867582 C 162.85715,84.269417 162.46492,83.120407 162.05374,82.279219 C 162.05374,82.279219 160.06279,78.206095 160.06279,78.206095 C 159.65161,77.364907 159.3171,76.24387 155.69394,77.842036 C 152.07076,79.440208 152.57508,80.176159 153.22327,81.827518 C 153.22327,81.827518 140.98095,85.742424 140.98095,85.742424 C 140.98095,85.742424 138.59965,76.381512 138.59965,76.381512 C 138.59965,76.381512 159.56663,68.410857 159.56663,68.410857 C 159.56663,68.410857 160.67031,70.668785 160.67031,70.668785 C 161.08148,71.509972 161.36434,72.694517 164.85511,70.824644 C 168.34588,68.954764 167.47244,67.949193 167.00164,67.139851 C 167.00164,67.139851 165.16801,63.987674 165.16801,63.987674 C 164.32554,62.539377 163.70421,62.496474 160.67275,64.12032 C 160.67275,64.12032 129.14279,74.890408 129.14279,74.890408 C 127.4877,75.092995 125.08995,75.331554 125.24414,76.950486 C 125.39834,78.569416 127.88288,78.321421 129.53796,78.118836 C 129.53796,78.118836 131.71021,77.79891 131.71021,77.79891 C 131.71021,77.79891 135.80067,101.04728 135.80067,101.04728 C 135.80067,101.04728 132.40592,101.54939 132.40592,101.54939 C 130.75083,101.75199 129.66964,102.88172 129.82384,104.50066 C 129.97803,106.11959 133.58574,106.33582 135.24082,106.13323 C 135.24082,106.13323 177.75729,90.367495 177.75729,90.367495 C 180.72993,88.638297 181.41806,86.398903 180.50187,84.93755 M 224.42206,45.561593 C 223.12607,44.579448 221.00167,47.353594 220.0846,48.488354 C 220.0846,48.488354 218.54109,50.355571 218.54109,50.355571 C 218.54109,50.355571 199.02074,52.596428 199.02074,52.596428 C 199.02074,52.596428 198.7164,37.213974 198.7164,37.213974 C 198.7164,37.213974 200.00462,35.71028 200.00462,35.71028 C 201.02163,34.523164 202.70773,32.435284 201.44288,31.413093 C 200.17803,30.390905 198.48382,32.486233 197.53461,33.594208 C 197.53461,33.594208 190.89154,40.827505 190.89154,40.827505 C 189.86992,41.869067 187.9555,43.760992 189.08317,44.932813 C 190.21083,46.104635 192.11887,44.220949 193.28645,43.030595 C 193.28645,43.030595 193.37047,52.083705 193.37047,52.083705 C 193.37047,52.083705 183.93014,51.815792 183.93014,51.815792 C 184.88685,51.010427 186.81443,49.281994 185.71154,48.086837 C 184.60863,46.891681 182.79223,48.522149 181.67605,49.46174 C 181.67605,49.46174 174.13371,55.478295 174.13371,55.478295 C 172.86216,56.387561 170.76051,57.88014 171.667,59.230303 C 172.57349,60.580469 174.83882,58.972611 176.0256,58.123964 C 176.0256,58.123964 177.42226,57.060165 177.42226,57.060165 C 177.42226,57.060165 193.2936,57.960264 193.2936,57.960264 C 193.2936,57.960264 190.68555,76.627072 190.68555,76.627072 C 190.68555,76.627072 188.73889,78.05251 188.73889,78.05251 C 187.46734,78.961784 184.77967,80.817317 185.68616,82.167483 C 186.59265,83.517647 189.35923,81.607449 190.63078,80.698174 C 190.63078,80.698174 200.11053,73.302543 200.11053,73.302543 C 201.30644,72.295828 203.84675,70.074135 202.77058,68.854867 C 201.69441,67.635598 199.21181,69.807551 197.93618,70.88138 C 197.93618,70.88138 198.88496,58.059494 198.88496,58.059494 C 198.88496,58.059494 212.18125,57.476501 212.18125,57.476501 C 211.15962,58.518062 208.97044,60.749966 210.1314,61.888707 C 211.29236,63.027449 213.48155,60.795545 214.50316,59.753983 C 214.50316,59.753983 222.6143,50.532734 222.6143,50.532734 C 223.59687,49.316919 225.71805,46.543737 224.42206,45.561593"
       id="path6479"
       sodipodi:nodetypes="ccccsccccsccsccccsccscccccscccscccccsccsccccscccccscccccsccscccccsccccsccccscccccccccsccscccsccscccccsccscccsccc" />
    <text
       xml:space="preserve"
       style="font-size:18.74285126px;font-style:normal;font-weight:normal;text-align:start;text-anchor:start;fill:#000000;fill-opacity:1;stroke:none;stroke-width:1px;stroke-linecap:butt;stroke-linejoin:miter;stroke-opacity:1;font-family:LMTypewriter10"
       x="105.74832"
       y="262.62454"
       id="text2746"
       transform="scale(1.0670735,0.9371426)"><tspan
         sodipodi:role="line"
         id="tspan2748"
         x="105.74832"
         y="262.62454"
         style="font-family:LMTypewriterVarWd10">BISON</tspan></text>
  </g>
</svg>
