<?xml version="1.0" encoding="UTF-8" standalone="no"?>
<!-- Created with Inkscape (http://www.inkscape.org/) -->
<svg
   xmlns:dc="http://purl.org/dc/elements/1.1/"
   xmlns:cc="http://creativecommons.org/ns#"
   xmlns:rdf="http://www.w3.org/1999/02/22-rdf-syntax-ns#"
   xmlns:svg="http://www.w3.org/2000/svg"
   xmlns="http://www.w3.org/2000/svg"
   xmlns:sodipodi="http://sodipodi.sourceforge.net/DTD/sodipodi-0.dtd"
   xmlns:inkscape="http://www.inkscape.org/namespaces/inkscape"
   id="svg2440"
   sodipodi:version="0.32"
   inkscape:version="0.46"
   width="450"
   height="100"
   version="1.0"
   sodipodi:docname="LibriVox-logotext-colorized.svg"
   inkscape:output_extension="org.inkscape.output.svg.inkscape">
  <metadata
     id="metadata2445">
    <rdf:RDF>
      <cc:Work
         rdf:about="">
        <dc:format>image/svg+xml</dc:format>
        <dc:type
           rdf:resource="http://purl.org/dc/dcmitype/StillImage" />
      </cc:Work>
    </rdf:RDF>
  </metadata>
  <defs
     id="defs2443">
    <inkscape:perspective
       sodipodi:type="inkscape:persp3d"
       inkscape:vp_x="0 : 526.18109 : 1"
       inkscape:vp_y="0 : 1000 : 0"
       inkscape:vp_z="744.09448 : 526.18109 : 1"
       inkscape:persp3d-origin="372.04724 : 350.78739 : 1"
       id="perspective2447" />
  </defs>
  <sodipodi:namedview
     inkscape:window-height="721"
     inkscape:window-width="1299"
     inkscape:pageshadow="2"
     inkscape:pageopacity="0.0"
     guidetolerance="10.0"
     gridtolerance="10.0"
     objecttolerance="10.0"
     borderopacity="1.0"
     bordercolor="#666666"
     pagecolor="#ffffff"
     id="base"
     showgrid="false"
     inkscape:zoom="0.92690626"
     inkscape:cx="174.85231"
     inkscape:cy="18.940601"
     inkscape:window-x="311"
     inkscape:window-y="376"
     inkscape:current-layer="svg2440"
     units="px" />
  <rect
     style="opacity:1;fill:#3e5b56;fill-opacity:1;stroke:none;stroke-width:7.5999999;stroke-linecap:butt;stroke-linejoin:miter;stroke-miterlimit:4;stroke-dasharray:none;stroke-dashoffset:20.61354446;stroke-opacity:1"
     id="rect3149"
     width="450"
     height="100"
     x="0"
     y="-1.6146806e-14" />
  <path
     style="fill:#d4ee78;fill-opacity:1;stroke:none;stroke-opacity:1"
     d="M 127.96648,91.360095 C 121.45372,89.235235 116.80281,85.138595 114.03192,79.086175 C 111.59334,73.759615 111.55704,73.273865 111.27726,42.229201 L 110.99374,10.769931 L 116.63294,10.769931 L 122.27216,10.769931 L 121.9076,25.519931 L 121.54303,40.269931 L 124.39386,37.634091 C 136.97941,25.997651 157.08532,30.086431 164.05702,45.700061 C 166.88003,52.022391 167.50152,64.654715 165.35314,72.044865 C 161.80057,84.265285 152.14185,91.823875 139.31054,92.424925 C 135.07204,92.623465 130.5328,92.197385 127.96648,91.360095 z M 145.75576,82.519935 C 151.44587,79.633085 154.75787,73.474815 155.48375,64.431915 C 157.2578,42.331041 140.94751,31.488871 125.63875,44.592601 L 121.54795,48.094171 L 121.90938,60.182051 C 122.35454,75.070885 123.94543,79.110485 130.70658,82.519935 C 133.16062,83.757435 136.55277,84.769935 138.24469,84.769935 C 139.93661,84.769935 143.31659,83.757435 145.75576,82.519935 z M 331.73822,90.892515 C 324.00277,88.363825 317.98416,82.849025 315.60055,76.105705 C 314.80551,73.856515 314.24469,68.133645 314.24469,62.269931 C 314.24469,54.210161 314.65324,51.386971 316.35035,47.719121 C 319.31366,41.314721 324.21695,36.083031 330.15467,32.990231 C 334.54141,30.705291 336.4882,30.334921 344.24469,30.309691 C 351.68967,30.285471 354.06561,30.683781 357.9959,32.614961 C 367.93824,37.500221 372.27509,46.793011 371.56305,61.685981 C 370.93366,74.850255 365.75668,83.617315 355.46813,88.942275 C 350.89698,91.308135 336.6032,92.482865 331.73822,90.892515 z M 348.86164,77.041775 C 353.28927,74.426315 355.74498,68.417715 355.74314,60.204201 C 355.74123,51.713071 353.6383,46.985781 348.74469,44.472081 C 344.78387,42.437511 339.94395,42.754121 336.05512,45.302181 C 330.32552,49.056361 327.93013,62.194421 331.39596,70.856385 C 334.25756,78.008235 342.36499,80.879445 348.86164,77.041775 z M 22.137691,89.188145 C 22.471535,88.318165 22.74468,70.318165 22.74468,49.188141 L 22.74468,10.769931 L 28.74468,10.769931 L 34.74468,10.769931 L 34.74468,46.269931 L 34.74468,81.769935 L 54.74468,81.769935 L 74.74468,81.769935 L 74.74468,86.269935 L 74.74468,90.769935 L 48.137691,90.769935 C 24.28644,90.769935 21.593569,90.606105 22.137691,89.188145 z M 84.244681,61.769631 L 84.244681,32.769761 L 89.744681,32.769851 L 95.244681,32.769931 L 95.244681,61.769931 L 95.244681,90.769935 L 89.744681,90.769725 L 84.244681,90.769505 L 84.244681,61.769631 z M 181.24469,61.769171 L 181.24469,32.769741 L 185.99469,32.769831 L 190.74469,32.769931 L 190.74469,37.883591 L 190.74469,42.997261 L 195.49469,37.978921 C 200.48453,32.707201 204.88502,30.786081 211.99469,30.775501 L 215.74469,30.769931 L 215.74469,35.623131 L 215.74469,40.476341 L 210.99469,40.081291 C 205.00455,39.583091 199.76347,42.415081 194.9043,48.775651 L 191.4709,53.269931 L 191.99818,72.019935 L 192.52545,90.769935 L 186.88507,90.769265 L 181.24469,90.768605 L 181.24469,61.769171 z M 222.24469,61.769631 L 222.24469,32.769761 L 227.74469,32.769851 L 233.24469,32.769931 L 233.24469,61.769931 L 233.24469,90.769935 L 227.74469,90.769725 L 222.24469,90.769505 L 222.24469,61.769631 z M 259.28858,59.519931 C 253.3318,42.332431 246.96699,24.107431 245.14456,19.019931 L 241.83105,9.7699306 L 250.56639,9.7699306 L 259.30172,9.7699306 L 269.27321,40.235271 C 274.75752,56.991221 279.49712,70.716225 279.80564,70.735285 C 280.11416,70.754345 280.95366,68.479295 281.6712,65.679625 C 282.38873,62.879955 286.88567,49.267451 291.6644,35.429621 L 300.353,10.269931 L 308.67211,9.9774906 C 316.3277,9.7083806 316.9348,9.8280206 316.28365,11.477491 C 315.89447,12.463331 309.47762,30.707431 302.02397,52.019931 L 288.47189,90.769935 L 279.29549,90.769935 L 270.11908,90.769935 L 259.28858,59.519931 z M 384.80315,76.233695 C 390.271,68.238755 394.74469,61.207161 394.74469,60.607921 C 394.74469,60.008681 390.69469,53.355731 385.74469,45.823581 C 380.79469,38.291431 376.74469,31.823021 376.74469,31.449341 C 376.74469,31.075671 380.76323,30.769931 385.67478,30.769931 L 394.60487,30.769931 L 399.81504,39.797601 C 402.68064,44.762821 405.38139,49.045401 405.81671,49.314441 C 406.25203,49.583481 409.12863,45.521031 412.20916,40.286771 L 417.81012,30.769931 L 426.33642,30.769931 C 432.88136,30.769931 434.69255,31.060411 434.13041,32.019931 C 433.72764,32.707431 429.61988,39.276581 425.00206,46.618041 C 420.38423,53.959501 416.83036,60.550801 417.10457,61.265381 C 417.37878,61.979951 421.36766,68.348305 425.96875,75.417265 C 430.56984,82.486235 434.67825,88.832435 435.09855,89.519935 C 435.68971,90.486925 433.64186,90.769875 426.05371,90.769675 L 416.24469,90.769405 L 410.90019,81.269675 C 407.96072,76.044815 405.26072,71.779765 404.90019,71.791775 C 404.53967,71.803785 401.85855,76.078785 398.94215,81.291775 L 393.63962,90.769935 L 384.25062,90.769935 L 374.86162,90.769935 L 384.80315,76.233695 z M 86.047441,22.572981 C 83.548611,21.365671 81.528587,16.562021 82.438877,13.991751 C 84.305761,8.7204707 91.615641,6.7598806 95.089691,10.598671 C 97.736901,13.523801 97.232111,19.241351 94.109821,21.697351 C 91.212491,23.976391 89.367011,24.176821 86.047441,22.572981 z M 224.04745,22.572981 C 221.54862,21.365671 219.5286,16.562021 220.43889,13.991751 C 222.30577,8.7204707 229.61565,6.7598806 233.0897,10.598671 C 235.73691,13.523801 235.23212,19.241351 232.10983,21.697351 C 229.2125,23.976391 227.36702,24.176821 224.04745,22.572981 z"
     id="path2451" />
</svg>
