<?xml version="1.0" encoding="UTF-8" standalone="no"?>
<!-- Created with Inkscape (http://www.inkscape.org/) -->
<svg
   xmlns:dc="http://purl.org/dc/elements/1.1/"
   xmlns:cc="http://creativecommons.org/ns#"
   xmlns:rdf="http://www.w3.org/1999/02/22-rdf-syntax-ns#"
   xmlns:svg="http://www.w3.org/2000/svg"
   xmlns="http://www.w3.org/2000/svg"
   xmlns:sodipodi="http://sodipodi.sourceforge.net/DTD/sodipodi-0.dtd"
   xmlns:inkscape="http://www.inkscape.org/namespaces/inkscape"
   id="svg2440"
   sodipodi:version="0.32"
   inkscape:version="0.46"
   width="450"
   height="100"
   version="1.0"
   sodipodi:docname="LibriVox-logotext-colorized-lv.svg"
   inkscape:output_extension="org.inkscape.output.svg.inkscape">
  <metadata
     id="metadata2445">
    <rdf:RDF>
      <cc:Work
         rdf:about="">
        <dc:format>image/svg+xml</dc:format>
        <dc:type
           rdf:resource="http://purl.org/dc/dcmitype/StillImage" />
      </cc:Work>
    </rdf:RDF>
  </metadata>
  <defs
     id="defs2443">
    <inkscape:perspective
       sodipodi:type="inkscape:persp3d"
       inkscape:vp_x="0 : 526.18109 : 1"
       inkscape:vp_y="0 : 1000 : 0"
       inkscape:vp_z="744.09448 : 526.18109 : 1"
       inkscape:persp3d-origin="372.04724 : 350.78739 : 1"
       id="perspective2447" />
  </defs>
  <sodipodi:namedview
     inkscape:window-height="721"
     inkscape:window-width="1299"
     inkscape:pageshadow="2"
     inkscape:pageopacity="0.0"
     guidetolerance="10.0"
     gridtolerance="10.0"
     objecttolerance="10.0"
     borderopacity="1.0"
     bordercolor="#666666"
     pagecolor="#ffffff"
     id="base"
     showgrid="false"
     inkscape:zoom="1.8538125"
     inkscape:cx="211.39944"
     inkscape:cy="25.109417"
     inkscape:window-x="311"
     inkscape:window-y="376"
     inkscape:current-layer="svg2440"
     units="px" />
  <rect
     style="opacity:1;fill:#3e5b56;fill-opacity:1;stroke:none;stroke-width:7.5999999;stroke-linecap:butt;stroke-linejoin:miter;stroke-miterlimit:4;stroke-dasharray:none;stroke-dashoffset:20.61354446;stroke-opacity:1"
     id="rect3149"
     width="161.40555"
     height="100"
     x="0"
     y="-1.6146806e-14" />
  <path
     style="fill:#d4ee78;fill-opacity:1;stroke:none;stroke-opacity:1"
     d="M 20.519404,89.188145 C 20.853248,88.318165 21.126393,70.318165 21.126393,49.188141 L 21.126393,10.769931 L 27.126393,10.769931 L 33.126393,10.769931 L 33.126393,46.269931 L 33.126393,81.769935 L 53.126393,81.769935 L 73.126393,81.769935 L 73.126393,86.269935 L 73.126393,90.769935 L 46.519404,90.769935 C 22.668153,90.769935 19.975282,90.606105 20.519404,89.188145 z"
     id="path2394" />
  <path
     style="fill:#d4ee78;fill-opacity:1;stroke:none;stroke-opacity:1"
     d="M 86.67134,59.519931 C 80.71456,42.332431 74.34975,24.107431 72.52732,19.019931 L 69.21381,9.7699306 L 77.94915,9.7699306 L 86.68448,9.7699306 L 96.65597,40.235271 C 102.14028,56.991221 106.87988,70.716225 107.1884,70.735285 C 107.49692,70.754345 108.33642,68.479295 109.05396,65.679625 C 109.77149,62.879955 114.26843,49.267451 119.04716,35.429621 L 127.73576,10.269931 L 136.05487,9.9774906 C 143.71046,9.7083806 144.31756,9.8280206 143.66641,11.477491 C 143.27723,12.463331 136.86038,30.707431 129.40673,52.019931 L 115.85465,90.769935 L 106.67825,90.769935 L 97.50184,90.769935 L 86.67134,59.519931 z"
     id="path2386" />
</svg>
