<?xml version="1.0" encoding="UTF-8" standalone="no"?>
<!-- Created with Inkscape (http://www.inkscape.org/) -->
<svg
   xmlns:dc="http://purl.org/dc/elements/1.1/"
   xmlns:cc="http://creativecommons.org/ns#"
   xmlns:rdf="http://www.w3.org/1999/02/22-rdf-syntax-ns#"
   xmlns:svg="http://www.w3.org/2000/svg"
   xmlns="http://www.w3.org/2000/svg"
   xmlns:sodipodi="http://sodipodi.sourceforge.net/DTD/sodipodi-0.dtd"
   xmlns:inkscape="http://www.inkscape.org/namespaces/inkscape"
   id="svg2440"
   sodipodi:version="0.32"
   inkscape:version="0.46"
   width="414.11697"
   height="84.881714"
   version="1.0"
   sodipodi:docname="LibriVox-logotext.svg"
   inkscape:output_extension="org.inkscape.output.svg.inkscape">
  <metadata
     id="metadata2445">
    <rdf:RDF>
      <cc:Work
         rdf:about="">
        <dc:format>image/svg+xml</dc:format>
        <dc:type
           rdf:resource="http://purl.org/dc/dcmitype/StillImage" />
      </cc:Work>
    </rdf:RDF>
  </metadata>
  <defs
     id="defs2443">
    <inkscape:perspective
       sodipodi:type="inkscape:persp3d"
       inkscape:vp_x="0 : 526.18109 : 1"
       inkscape:vp_y="0 : 1000 : 0"
       inkscape:vp_z="744.09448 : 526.18109 : 1"
       inkscape:persp3d-origin="372.04724 : 350.78739 : 1"
       id="perspective2447" />
  </defs>
  <sodipodi:namedview
     inkscape:window-height="710"
     inkscape:window-width="955"
     inkscape:pageshadow="2"
     inkscape:pageopacity="0.0"
     guidetolerance="10.0"
     gridtolerance="10.0"
     objecttolerance="10.0"
     borderopacity="1.0"
     bordercolor="#666666"
     pagecolor="#ffffff"
     id="base"
     showgrid="false"
     inkscape:zoom="1.3108434"
     inkscape:cx="234.55834"
     inkscape:cy="-92.800981"
     inkscape:window-x="0"
     inkscape:window-y="30"
     inkscape:current-layer="svg2440" />
  <path
     style="fill:#000000;stroke:#ffffff;stroke-opacity:1"
     d="M 106.38932,83.268662 C 99.876566,81.143802 95.225656,77.047162 92.454766,70.994742 C 90.016186,65.668182 89.979886,65.182432 89.700106,34.137768 L 89.416586,2.6784975 L 95.055786,2.6784975 L 100.695,2.6784975 L 100.33044,17.428498 L 99.965876,32.178498 L 102.8167,29.542658 C 115.40225,17.906218 135.50816,21.994998 142.47986,37.608628 C 145.30287,43.930958 145.92436,56.563282 143.77598,63.953432 C 140.22341,76.173852 130.56469,83.732442 117.73338,84.333492 C 113.49488,84.532032 108.95564,84.105952 106.38932,83.268662 z M 124.1786,74.428502 C 129.86871,71.541652 133.18071,65.383382 133.90659,56.340482 C 135.68064,34.239608 119.37035,23.397438 104.06159,36.501168 L 99.970796,40.002738 L 100.33222,52.090618 C 100.77738,66.979452 102.36827,71.019052 109.12942,74.428502 C 111.58346,75.666002 114.97561,76.678502 116.66753,76.678502 C 118.35945,76.678502 121.73943,75.666002 124.1786,74.428502 z M 310.16106,82.801082 C 302.42561,80.272392 296.407,74.757592 294.02339,68.014272 C 293.22835,65.765082 292.66753,60.042212 292.66753,54.178498 C 292.66753,46.118728 293.07608,43.295538 294.77319,39.627688 C 297.7365,33.223288 302.63979,27.991598 308.57751,24.898798 C 312.96425,22.613858 314.91104,22.243488 322.66753,22.218258 C 330.11251,22.194038 332.48845,22.592348 336.41874,24.523528 C 346.36108,29.408788 350.69793,38.701578 349.98589,53.594548 C 349.3565,66.758822 344.17952,75.525882 333.89097,80.850842 C 329.31982,83.216702 315.02604,84.391432 310.16106,82.801082 z M 327.28448,68.950342 C 331.71211,66.334882 334.16782,60.326282 334.16598,52.112768 C 334.16407,43.621638 332.06114,38.894348 327.16753,36.380648 C 323.20671,34.346078 318.36679,34.662688 314.47796,37.210748 C 308.74836,40.964928 306.35297,54.102988 309.8188,62.764952 C 312.6804,69.916802 320.78783,72.788012 327.28448,68.950342 z M 0.56053642,81.096712 C 0.89438042,80.226732 1.1675254,62.226732 1.1675254,41.096708 L 1.1675254,2.6784975 L 7.1675254,2.6784975 L 13.167525,2.6784975 L 13.167525,38.178498 L 13.167525,73.678502 L 33.167525,73.678502 L 53.167525,73.678502 L 53.167525,78.178502 L 53.167525,82.678502 L 26.560536,82.678502 C 2.7092854,82.678502 0.01641442,82.514672 0.56053642,81.096712 z M 62.667526,53.678198 L 62.667526,24.678328 L 68.167526,24.678418 L 73.667526,24.678498 L 73.667526,53.678498 L 73.667526,82.678502 L 68.167526,82.678292 L 62.667526,82.678072 L 62.667526,53.678198 z M 159.66753,53.677738 L 159.66753,24.678308 L 164.41753,24.678398 L 169.16753,24.678498 L 169.16753,29.792158 L 169.16753,34.905828 L 173.91753,29.887488 C 178.90737,24.615768 183.30786,22.694648 190.41753,22.684068 L 194.16753,22.678498 L 194.16753,27.531698 L 194.16753,32.384908 L 189.41753,31.989858 C 183.42739,31.491658 178.18631,34.323648 173.32714,40.684218 L 169.89374,45.178498 L 170.42102,63.928502 L 170.94829,82.678502 L 165.30791,82.677832 L 159.66753,82.677172 L 159.66753,53.677738 z M 200.66753,53.678198 L 200.66753,24.678328 L 206.16753,24.678418 L 211.66753,24.678498 L 211.66753,53.678498 L 211.66753,82.678502 L 206.16753,82.678292 L 200.66753,82.678072 L 200.66753,53.678198 z M 237.71142,51.428498 C 231.75464,34.240998 225.38983,16.015998 223.5674,10.928498 L 220.25389,1.6784975 L 228.98923,1.6784975 L 237.72456,1.6784975 L 247.69605,32.143838 C 253.18036,48.899788 257.91996,62.624792 258.22848,62.643852 C 258.537,62.662912 259.3765,60.387862 260.09404,57.588192 C 260.81157,54.788522 265.30851,41.176018 270.08724,27.338188 L 278.77584,2.1784975 L 287.09495,1.8860575 C 294.75054,1.6169475 295.35764,1.7365875 294.70649,3.3860575 C 294.31731,4.3718975 287.90046,22.615998 280.44681,43.928498 L 266.89473,82.678502 L 257.71833,82.678502 L 248.54192,82.678502 L 237.71142,51.428498 z M 363.22599,68.142262 C 368.69384,60.147322 373.16753,53.115728 373.16753,52.516488 C 373.16753,51.917248 369.11753,45.264298 364.16753,37.732148 C 359.21753,30.199998 355.16753,23.731588 355.16753,23.357908 C 355.16753,22.984238 359.18607,22.678498 364.09762,22.678498 L 373.02771,22.678498 L 378.23788,31.706168 C 381.10348,36.671388 383.80423,40.953968 384.23955,41.223008 C 384.67487,41.492048 387.55147,37.429598 390.632,32.195338 L 396.23296,22.678498 L 404.75926,22.678498 C 411.3042,22.678498 413.11539,22.968978 412.55325,23.928498 C 412.15048,24.615998 408.04272,31.185148 403.4249,38.526608 C 398.80707,45.868068 395.2532,52.459368 395.52741,53.173948 C 395.80162,53.888518 399.7905,60.256872 404.39159,67.325832 C 408.99268,74.394802 413.10109,80.741002 413.52139,81.428502 C 414.11255,82.395492 412.0647,82.678442 404.47655,82.678242 L 394.66753,82.677972 L 389.32303,73.178242 C 386.38356,67.953382 383.68356,63.688332 383.32303,63.700342 C 382.96251,63.712352 380.28139,67.987352 377.36499,73.200342 L 372.06246,82.678502 L 362.67346,82.678502 L 353.28446,82.678502 L 363.22599,68.142262 z M 64.470286,14.481548 C 61.971456,13.274238 59.951432,8.4705875 60.861722,5.9003175 C 62.728606,0.62903754 70.038486,-1.3315525 73.512536,2.5072375 C 76.159746,5.4323675 75.654956,11.149918 72.532666,13.605918 C 69.635336,15.884958 67.789856,16.085388 64.470286,14.481548 z M 202.47029,14.481548 C 199.97146,13.274238 197.95144,8.4705875 198.86173,5.9003175 C 200.72861,0.62903754 208.03849,-1.3315525 211.51254,2.5072375 C 214.15975,5.4323675 213.65496,11.149918 210.53267,13.605918 C 207.63534,15.884958 205.78986,16.085388 202.47029,14.481548 z"
     id="path2451" />
</svg>
