<?xml version="1.0" encoding="UTF-8" standalone="no"?>
<!-- Created with Inkscape (http://www.inkscape.org/) -->

<svg
   xmlns:dc="http://purl.org/dc/elements/1.1/"
   xmlns:cc="http://creativecommons.org/ns#"
   xmlns:rdf="http://www.w3.org/1999/02/22-rdf-syntax-ns#"
   xmlns:svg="http://www.w3.org/2000/svg"
   xmlns="http://www.w3.org/2000/svg"
   xmlns:sodipodi="http://sodipodi.sourceforge.net/DTD/sodipodi-0.dtd"
   xmlns:inkscape="http://www.inkscape.org/namespaces/inkscape"
   id="svg2"
   version="1.1"
   inkscape:version="0.48.4 r9939"
   width="150.97"
   height="150.57413"
   xml:space="preserve"
   sodipodi:docname="github-mark.svg"><metadata
     id="metadata8"><rdf:RDF><cc:Work
         rdf:about=""><dc:format>image/svg+xml</dc:format><dc:type
           rdf:resource="http://purl.org/dc/dcmitype/StillImage" /><dc:title /></cc:Work></rdf:RDF></metadata><defs
     id="defs6"><clipPath
       clipPathUnits="userSpaceOnUse"
       id="clipPath18"><path
         d="m 0,0 3091,0 0,1766.7 -3091,0 L 0,0 z"
         id="path20"
         inkscape:connector-curvature="0" /></clipPath></defs><sodipodi:namedview
     pagecolor="#ffffff"
     bordercolor="#666666"
     borderopacity="1"
     objecttolerance="10"
     gridtolerance="10"
     guidetolerance="10"
     inkscape:pageopacity="0"
     inkscape:pageshadow="2"
     inkscape:window-width="1918"
     inkscape:window-height="1180"
     id="namedview4"
     showgrid="false"
     fit-margin-top="0"
     fit-margin-left="0"
     fit-margin-right="0"
     fit-margin-bottom="0"
     inkscape:showpageshadow="false"
     borderlayer="true"
     inkscape:zoom="4.2746364"
     inkscape:cx="116.51953"
     inkscape:cy="84.140533"
     inkscape:window-x="1920"
     inkscape:window-y="18"
     inkscape:window-maximized="0"
     inkscape:current-layer="g10" /><g
     id="g10"
     inkscape:groupmode="layer"
     inkscape:label="ink_ext_XXXXXX"
     transform="matrix(1.25,0,0,-1.25,-235.45875,212.795)"><g
       id="g2998"><path
         transform="matrix(0.84267675,0,0,-0.84267675,185.86921,173.83451)"
         d="m 145.74339,75.889778 c 0,39.276922 -31.84024,71.117162 -71.117162,71.117162 -39.276921,0 -71.1171566,-31.84024 -71.1171566,-71.117162 0,-39.276921 31.8402356,-71.1171568 71.1171566,-71.1171568 39.276922,0 71.117162,31.8402358 71.117162,71.1171568 z"
         sodipodi:ry="71.117157"
         sodipodi:rx="71.117157"
         sodipodi:cy="75.889778"
         sodipodi:cx="74.626228"
         id="path2993"
         style="fill:#ffffff;fill-opacity:1;stroke:#ffffff;stroke-width:0.40599999;stroke-linejoin:miter;stroke-miterlimit:10;stroke-opacity:1;stroke-dasharray:none"
         sodipodi:type="arc" /><g
         id="g3225"><path
           inkscape:connector-curvature="0"
           id="path24"
           style="fill:#1b1817;fill-opacity:1;fill-rule:evenodd;stroke:none"
           d="m 248.755,170.236 c -33.347,0 -60.388,-27.035 -60.388,-60.387 0,-26.681 17.303,-49.317 41.297,-57.3021 3.018,-0.559 4.126,1.3101 4.126,2.9051 0,1.4402 -0.056,6.1968 -0.082,11.2429 -16.8,-3.6527 -20.345,7.125 -20.345,7.125 -2.747,6.9801 -6.705,8.8363 -6.705,8.8363 -5.479,3.7481 0.413,3.6711 0.413,3.6711 6.064,-0.4257 9.257,-6.2238 9.257,-6.2238 5.386,-9.2316 14.127,-6.5625 17.573,-5.0195 0.542,3.9023 2.107,6.5676 3.834,8.0754 -13.413,1.5261 -27.513,6.7051 -27.513,29.8436 0,6.593 2.359,11.98 6.222,16.209 -0.627,1.522 -2.694,7.663 0.585,15.981 0,0 5.072,1.623 16.611,-6.191 4.817,1.339 9.983,2.01 15.115,2.033 5.132,-0.023 10.302,-0.694 15.128,-2.033 11.526,7.814 16.59,6.191 16.59,6.191 3.287,-8.318 1.219,-14.459 0.592,-15.981 3.873,-4.229 6.215,-9.616 6.215,-16.209 0,-23.1944 -14.127,-28.3007 -27.574,-29.796 2.166,-1.8738 4.096,-5.5488 4.096,-11.1832 0,-8.0797 -0.07,-14.5828 -0.07,-16.5718 0,-1.6071 1.087,-3.4899 4.148,-2.8969 23.981,7.9937 41.263,30.6219 41.263,57.2939 0,33.352 -27.038,60.387 -60.388,60.387" /><path
           inkscape:connector-curvature="0"
           id="path26"
           style="fill:#1b1817;fill-opacity:1;fill-rule:nonzero;stroke:none"
           d="m 211.239,83.5332 c -0.133,-0.3008 -0.605,-0.3906 -1.035,-0.1844 -0.438,0.1973 -0.683,0.6063 -0.542,0.9071 0.13,0.3086 0.603,0.3945 1.04,0.1886 0.439,-0.1972 0.689,-0.6105 0.537,-0.9113 l 0,0" /><path
           inkscape:connector-curvature="0"
           id="path28"
           style="fill:#1b1817;fill-opacity:1;fill-rule:nonzero;stroke:none"
           d="m 213.686,80.8047 c -0.289,-0.2664 -0.852,-0.1426 -1.234,0.2793 -0.395,0.4211 -0.469,0.9844 -0.177,1.2551 0.297,0.2664 0.843,0.1414 1.239,-0.2793 0.395,-0.4258 0.472,-0.9844 0.172,-1.2551 l 0,0" /><path
           inkscape:connector-curvature="0"
           id="path30"
           style="fill:#1b1817;fill-opacity:1;fill-rule:nonzero;stroke:none"
           d="m 216.066,77.3273 c -0.37,-0.2578 -0.975,-0.0168 -1.349,0.5204 -0.37,0.5371 -0.37,1.1816 0.009,1.4394 0.374,0.2578 0.97,0.0254 1.349,-0.5066 0.369,-0.5461 0.369,-1.1907 -0.009,-1.4532 l 0,0" /><path
           inkscape:connector-curvature="0"
           id="path32"
           style="fill:#1b1817;fill-opacity:1;fill-rule:nonzero;stroke:none"
           d="m 219.328,73.9672 c -0.331,-0.3652 -1.036,-0.2672 -1.552,0.2308 -0.528,0.4872 -0.674,1.1782 -0.343,1.543 0.336,0.366 1.045,0.2629 1.564,-0.2308 0.524,-0.4864 0.684,-1.1821 0.331,-1.543 l 0,0" /><path
           inkscape:connector-curvature="0"
           id="path34"
           style="fill:#1b1817;fill-opacity:1;fill-rule:nonzero;stroke:none"
           d="m 223.828,72.016 c -0.146,-0.473 -0.825,-0.6879 -1.509,-0.4871 -0.683,0.207 -1.13,0.7609 -0.992,1.2391 0.142,0.4761 0.824,0.7 1.513,0.4851 0.682,-0.2062 1.13,-0.7562 0.988,-1.2371 l 0,0" /><path
           inkscape:connector-curvature="0"
           id="path36"
           style="fill:#1b1817;fill-opacity:1;fill-rule:nonzero;stroke:none"
           d="m 228.771,71.6539 c 0.016,-0.498 -0.564,-0.9109 -1.282,-0.9199 -0.721,-0.016 -1.306,0.3871 -1.314,0.8769 0,0.5032 0.567,0.9121 1.289,0.9243 0.718,0.0136 1.307,-0.3864 1.307,-0.8813 l 0,0" /><path
           inkscape:connector-curvature="0"
           id="path38"
           style="fill:#1b1817;fill-opacity:1;fill-rule:nonzero;stroke:none"
           d="m 233.369,72.4371 c 0.086,-0.4859 -0.413,-0.9851 -1.126,-1.118 -0.701,-0.1281 -1.349,0.1719 -1.439,0.6539 -0.087,0.4981 0.421,0.9969 1.121,1.1258 0.714,0.1242 1.353,-0.1679 1.444,-0.6617 l 0,0" /></g></g></g></svg>