<?xml version="1.0" encoding="UTF-8" standalone="no"?>
<!-- Generator: Adobe Illustrator 12.0.0, SVG Export Plug-In . SVG Version: 6.00 Build 51448)  -->
<svg
   xmlns:dc="http://purl.org/dc/elements/1.1/"
   xmlns:cc="http://creativecommons.org/ns#"
   xmlns:rdf="http://www.w3.org/1999/02/22-rdf-syntax-ns#"
   xmlns:svg="http://www.w3.org/2000/svg"
   xmlns="http://www.w3.org/2000/svg"
   xmlns:xlink="http://www.w3.org/1999/xlink"
   xmlns:sodipodi="http://sodipodi.sourceforge.net/DTD/sodipodi-0.dtd"
   xmlns:inkscape="http://www.inkscape.org/namespaces/inkscape"
   version="1.1"
   width="812.044"
   height="152.966"
   viewBox="0 0 812.044 152.966"
   overflow="visible"
   enable-background="new 0 0 812.044 152.966"
   xml:space="preserve"
   id="svg2"
   sodipodi:version="0.32"
   inkscape:version="0.46"
   sodipodi:docname="windowslogo-large.svg"
   inkscape:output_extension="org.inkscape.output.svg.inkscape"><metadata
   id="metadata501"><rdf:RDF><cc:Work
       rdf:about=""><dc:format>image/svg+xml</dc:format><dc:type
         rdf:resource="http://purl.org/dc/dcmitype/StillImage" /></cc:Work></rdf:RDF></metadata><defs
   id="defs499"><inkscape:perspective
   sodipodi:type="inkscape:persp3d"
   inkscape:vp_x="0 : 76.483002 : 1"
   inkscape:vp_y="0 : 1000 : 0"
   inkscape:vp_z="812.04401 : 76.483002 : 1"
   inkscape:persp3d-origin="406.022 : 50.988668 : 1"
   id="perspective503" />
	
	
	
	
	
	
	
	
	
	
	
	
	
	
	
	
	
	
	
	
	
	
</defs><sodipodi:namedview
   inkscape:window-height="720"
   inkscape:window-width="1011"
   inkscape:pageshadow="2"
   inkscape:pageopacity="0.0"
   guidetolerance="10.0"
   gridtolerance="10.0"
   objecttolerance="10.0"
   borderopacity="1.0"
   bordercolor="#666666"
   pagecolor="#ffffff"
   id="base"
   showgrid="false"
   inkscape:zoom="0.67484027"
   inkscape:cx="406.022"
   inkscape:cy="76.483002"
   inkscape:window-x="0"
   inkscape:window-y="408"
   inkscape:current-layer="svg2" />

<g
   id="flag"
   inkscape:export-filename="/tdata/Web/idlebox.net/img/windowslogo-large.png"
   inkscape:export-xdpi="260.05734"
   inkscape:export-ydpi="260.05734">
	<g
   id="g50">
		<path
   id="path52"
   fill="none"
   d="M39.674,133.092" />
	</g>
	<g
   id="g54">
		<g
   id="g56">
			<path
   d="M170.407,21.106c-32.996,13.644-48.867,5.999-63.164-3.624c0.033-0.126,0.092-0.37-0.004-0.604     c14.297,9.625,30.486,17.371,63.48,3.729C170.5,20.808,170.5,20.908,170.407,21.106z"
   id="path58"
   fill="#83B641" />
			<polygon
   clip-rule="evenodd"
   points="104.723,18.161 105.901,17.319 89.786,73.298      88.544,74.281 88.545,74.152    "
   id="polygon60"
   fill-rule="evenodd"
   fill="#8AA742" />
			<linearGradient
   id="XMLID_39_"
   gradientUnits="userSpaceOnUse"
   x1="99.2266"
   y1="45.6704"
   x2="97.7227"
   y2="45.2392">
				<stop
   offset="0"
   style="stop-color:#8AA742"
   id="stop63" />
				<stop
   offset="0.1"
   style="stop-color:#8AA742"
   id="stop65" />
				<stop
   offset="0.25"
   style="stop-color:#B7CA33"
   id="stop67" />
				<stop
   offset="0.4045"
   style="stop-color:#B7CA33"
   id="stop69" />
				<stop
   offset="1"
   style="stop-color:#8AA742"
   id="stop71" />
			</linearGradient>
			<path
   d="M91,73.923c-0.502-0.281-0.864-0.847-1.31-0.672l16.155-55.907     c0.248-0.111,0.873-0.325,1.463,0.14L91,73.923z"
   id="path73"
   fill="url(#XMLID_39_)" />
			<path
   clip-rule="evenodd"
   d="M106.053,16.956l-0.166,0.4l-1.178,0.851     c0.1-0.382,0.998-1.019,1.275-1.212C106.036,16.959,106.053,16.956,106.053,16.956z"
   id="path75"
   fill-rule="evenodd"
   fill="#8AA742" />
			<linearGradient
   id="XMLID_40_"
   gradientUnits="userSpaceOnUse"
   x1="107.3105"
   y1="17.1113"
   x2="105.8649"
   y2="17.0102">
				<stop
   offset="0"
   style="stop-color:#83B641"
   id="stop78" />
				<stop
   offset="0.2"
   style="stop-color:#B7CA33"
   id="stop80" />
				<stop
   offset="0.525"
   style="stop-color:#B7CA33"
   id="stop82" />
				<stop
   offset="1"
   style="stop-color:#8AA742"
   id="stop84" />
			</linearGradient>
			<path
   d="M107.252,17.444c-0.611-0.377-1.162-0.194-1.412-0.086c0.039-0.119,0.145-0.363,0.145-0.363     c0.531-0.336,0.762-0.352,1.258-0.115C107.307,17.065,107.334,17.243,107.252,17.444z"
   id="path86"
   fill="url(#XMLID_40_)" />
			<linearGradient
   id="XMLID_41_"
   gradientUnits="userSpaceOnUse"
   x1="170.7686"
   y1="20.5767"
   x2="171.4149"
   y2="21.6523">
				<stop
   offset="0"
   style="stop-color:#83B641"
   id="stop89" />
				<stop
   offset="1"
   style="stop-color:#595E48"
   id="stop91" />
			</linearGradient>
			<path
   clip-rule="evenodd"
   d="M171.631,21.522c0,0-0.369-0.509-1.252-0.346     c0.078-0.209,0.078-0.405,0.34-0.57c0.531-0.08,0.789,0.06,0.902,0.169c0.063,0.062,0.082,0.113,0.082,0.113     C171.774,21.2,171.631,21.522,171.631,21.522z"
   id="path93"
   fill-rule="evenodd"
   fill="url(#XMLID_41_)" />
			<linearGradient
   id="XMLID_42_"
   gradientUnits="userSpaceOnUse"
   x1="172.4336"
   y1="21.4087"
   x2="172.026"
   y2="21.8945">
				<stop
   offset="0"
   style="stop-color:#8AA742"
   id="stop96" />
				<stop
   offset="1"
   style="stop-color:#595E48"
   id="stop98" />
			</linearGradient>
			<path
   clip-rule="evenodd"
   d="M171.622,20.775l1.305,1.047     c0.078,0.35-0.09,0.705-0.09,0.705l-1.309-1.051C171.528,21.476,171.692,21.086,171.622,20.775z"
   id="path100"
   fill-rule="evenodd"
   fill="url(#XMLID_42_)" />
			<polygon
   clip-rule="evenodd"
   points="155.243,77.619 171.555,21.402 172.887,22.461      156.481,78.712    "
   id="polygon102"
   fill-rule="evenodd"
   fill="#595E48" />
			<path
   clip-rule="evenodd"
   d="M156.801,79.119c0.035-0.321-0.307-0.586-0.307-0.586     L172.87,22.41c0,0,0.26,0.234,0.33,0.403L156.801,79.119z"
   id="path104"
   fill-rule="evenodd"
   fill="#767E47" />
			<linearGradient
   id="XMLID_43_"
   gradientUnits="userSpaceOnUse"
   x1="173.0415"
   y1="21.8052"
   x2="173.0415"
   y2="22.8345">
				<stop
   offset="0"
   style="stop-color:#8AA742"
   id="stop107" />
				<stop
   offset="1"
   style="stop-color:#767E47"
   id="stop109" />
			</linearGradient>
			<path
   clip-rule="evenodd"
   d="M173.196,22.834c0,0-0.059-0.161-0.338-0.396     c0.127-0.528,0.043-0.634,0.043-0.634l0.025,0.017C172.926,21.822,173.336,22.195,173.196,22.834z"
   id="path111"
   fill-rule="evenodd"
   fill="url(#XMLID_43_)" />
			<path
   clip-rule="evenodd"
   d="M156.254,79.643c-8.818,4.004-17.164,6.07-24.914,6.746     c-13.383,1.52-24.205-1.391-33.047-5.734c-3.438-1.578-6.551-3.364-9.305-5.219l0.149-0.129c2.792,1.879,5.835,3.715,9.155,5.348     c8.984,4.125,20.195,6.848,33.047,5.734c7.32-0.828,15.406-2.988,24.355-6.957C155.946,79.635,156.254,79.643,156.254,79.643z"
   id="path113"
   fill-rule="evenodd"
   fill="#595E48" />
			<linearGradient
   id="XMLID_44_"
   gradientUnits="userSpaceOnUse"
   x1="155.3198"
   y1="77.9375"
   x2="153.9102"
   y2="77.8389">
				<stop
   offset="0"
   style="stop-color:#767E47"
   id="stop116" />
				<stop
   offset="1"
   style="stop-color:#8AA742"
   id="stop118" />
			</linearGradient>
			<path
   d="M154.473,78.599c0,0-0.631-0.566-0.516-1.395c0.848-0.217,1.391,0.32,1.391,0.32     S155.192,78.287,154.473,78.599z"
   id="path120"
   fill="url(#XMLID_44_)" />
			<linearGradient
   id="XMLID_45_"
   gradientUnits="userSpaceOnUse"
   x1="155.9819"
   y1="78.0635"
   x2="155.0714"
   y2="79.0747">
				<stop
   offset="0"
   style="stop-color:#767E47"
   id="stop123" />
				<stop
   offset="1"
   style="stop-color:#595E48"
   id="stop125" />
			</linearGradient>
			<path
   clip-rule="evenodd"
   d="M155.348,77.525l1.186,1.035     c0,0-0.182,0.649-0.902,0.965l-1.205-1.032C155.149,78.177,155.348,77.525,155.348,77.525z"
   id="path127"
   fill-rule="evenodd"
   fill="url(#XMLID_45_)" />
			<linearGradient
   id="XMLID_46_"
   gradientUnits="userSpaceOnUse"
   x1="90.3608"
   y1="79.8389"
   x2="154.6489"
   y2="79.8389">
				<stop
   offset="0"
   style="stop-color:#8AA742"
   id="stop130" />
				<stop
   offset="0.4"
   style="stop-color:#B7CA33"
   id="stop132" />
				<stop
   offset="1"
   style="stop-color:#8AA742"
   id="stop134" />
			</linearGradient>
			<path
   d="M154.153,77.187c-0.115,0.83,0.496,1.436,0.496,1.436c-33.002,13.645-50.004,5.61-64.288-4.066     c0.251-0.184,0.29-0.182,0.453-0.764C105.096,83.471,126.684,90.252,154.153,77.187z"
   id="path136"
   fill="url(#XMLID_46_)" />
			<path
   clip-rule="evenodd"
   d="M89.144,75.365l1.227-0.82c14.29,9.2,31.169,17.157,64.136,3.91     l1.193,1.036C124.047,93.455,103.797,85.678,89.144,75.365z"
   id="path138"
   fill-rule="evenodd"
   fill="#767E47" />
			<path
   clip-rule="evenodd"
   d="M156.801,79.119c-0.164,0.301-0.451,0.473-0.547,0.523     c-0.02,0.012-0.033,0.012-0.033,0.012s-0.225,0.031-0.525-0.164c0.645-0.352,0.832-1.055,0.832-1.055     S156.903,78.748,156.801,79.119z"
   id="path140"
   fill-rule="evenodd"
   fill="#767E47" />
			<path
   clip-rule="evenodd"
   d="M89.189,75.349l-0.147,0.121c0,0-0.804-0.434-0.496-1.318     C88.618,75.021,89.189,75.349,89.189,75.349z"
   id="path142"
   fill-rule="evenodd"
   fill="#767E47" />
			<linearGradient
   id="XMLID_47_"
   gradientUnits="userSpaceOnUse"
   x1="89.9692"
   y1="74.917"
   x2="88.9512"
   y2="73.7863">
				<stop
   offset="0"
   style="stop-color:#767E47"
   id="stop145" />
				<stop
   offset="0.1"
   style="stop-color:#767E47"
   id="stop147" />
				<stop
   offset="0.65"
   style="stop-color:#83B641"
   id="stop149" />
				<stop
   offset="1"
   style="stop-color:#8AA742"
   id="stop151" />
			</linearGradient>
			<path
   d="M88.545,74.152l1.184-0.936c-0.069,0.902,0.711,1.277,0.711,1.277l-1.204,0.926     C89.236,75.419,88.477,75.056,88.545,74.152z"
   id="path153"
   fill="url(#XMLID_47_)" />
			<linearGradient
   id="XMLID_48_"
   gradientUnits="userSpaceOnUse"
   x1="89.9355"
   y1="73.0874"
   x2="90.6765"
   y2="74.4241">
				<stop
   offset="0"
   style="stop-color:#8AA742"
   id="stop156" />
				<stop
   offset="0.4045"
   style="stop-color:#83B641"
   id="stop158" />
				<stop
   offset="0.8"
   style="stop-color:#8AA742"
   id="stop160" />
				<stop
   offset="1"
   style="stop-color:#8AA742"
   id="stop162" />
			</linearGradient>
			<path
   d="M89.703,73.216c0.405-0.123,0.771,0.297,1.267,0.682c-0.161,0.584-0.303,0.484-0.554,0.67     C90.122,74.392,89.628,73.958,89.703,73.216z"
   id="path164"
   fill="url(#XMLID_48_)" />
			<linearGradient
   id="XMLID_49_"
   gradientUnits="userSpaceOnUse"
   x1="163.585"
   y1="49.5293"
   x2="162.0867"
   y2="49.0997">
				<stop
   offset="0"
   style="stop-color:#595E48"
   id="stop167" />
				<stop
   offset="1"
   style="stop-color:#83B641"
   id="stop169" />
			</linearGradient>
			<path
   d="M153.997,77.314l16.332-56.189c0.883-0.163,1.305,0.337,1.305,0.337l-16.285,56.063     C155.348,77.525,154.696,77.025,153.997,77.314z"
   id="path171"
   fill="url(#XMLID_49_)" />
			<g
   id="g173">
				<defs
   id="defs175">
					<path
   id="XMLID_12_"
   d="M107.254,17.442c14.297,9.621,30.156,17.29,63.152,3.648l-16.256,56.165       c-27.541,12.922-49.002,6.278-63.283-3.398L107.254,17.442z" />
				</defs>
				<clipPath
   id="XMLID_50_">
					<use
   xlink:href="#XMLID_12_"
   id="use179" />
				</clipPath>
			</g>
		</g>
		<linearGradient
   id="XMLID_51_"
   gradientUnits="userSpaceOnUse"
   x1="159.8691"
   y1="57.8398"
   x2="100.4596"
   y2="40.8044">
			<stop
   offset="0"
   style="stop-color:#6FBC48"
   id="stop182" />
			<stop
   offset="0.3333"
   style="stop-color:#98C74F"
   id="stop184" />
			<stop
   offset="0.6666"
   style="stop-color:#80C046"
   id="stop186" />
			<stop
   offset="1"
   style="stop-color:#607D3A"
   id="stop188" />
		</linearGradient>
		<path
   d="M170.407,21.09c-32.996,13.642-48.861,5.973-63.16-3.65L90.969,73.902    c14.285,9.678,31.531,17.635,63.188,3.463L170.407,21.09z"
   id="path190"
   fill="url(#XMLID_51_)" />
	</g>
	<g
   id="g192">
		<g
   id="g194">
			<path
   clip-rule="evenodd"
   d="M1.36,132.346c0.108,0.016,0.307-0.078,0.307-0.078     c0.229,0.156,0.411,0.266,0.411,0.266S1.72,132.619,1.36,132.346z"
   id="path196"
   fill-rule="evenodd"
   fill="#313C7E" />
			<path
   d="M62.57,135.236c0,0,0.219,0.203,0.471,0.133l-0.989,0.586c-0.316,0.141-0.641-0.082-0.641-0.082     L62.57,135.236z"
   id="path198"
   fill="#313C7E" />
			<path
   d="M1.68,132.275c0,0-0.193,0.098-0.302,0.082l-1.085-0.828l-0.025-0.023     c0.157,0.055,0.338,0.027,0.411,0.012L1.68,132.275z"
   id="path200"
   fill="#313C7E" />
			<path
   d="M63.125,134.428c0.113,0.082,0.232,0.172,0.344,0.398c-0.063,0.297-0.311,0.449-0.451,0.559     c-0.202,0.047-0.485-0.145-0.485-0.145C62.691,135.107,62.961,134.916,63.125,134.428z"
   id="path202"
   fill="#2E499E" />
			<g
   id="g204">
				<g
   id="g206">
					<rect
   x="16.084"
   y="74.603"
   clip-rule="evenodd"
   width="0.324"
   height="0.018"
   id="rect208"
   fill-rule="evenodd"
   fill="#2E499E" />
				</g>
			</g>
			<polygon
   clip-rule="evenodd"
   points="16.086,74.56 16.267,74.611 0.207,130.799      0.023,130.752    "
   id="polygon210"
   fill-rule="evenodd"
   fill="#2E499E" />
			<path
   clip-rule="evenodd"
   d="M0.293,131.529c-0.208-0.18-0.352-0.488-0.271-0.777     l0.193-0.074c-0.081,0.418,0.226,0.719,0.45,0.848C0.667,131.525,0.503,131.607,0.293,131.529z"
   id="path212"
   fill-rule="evenodd"
   fill="#2E499E" />
			<linearGradient
   id="XMLID_52_"
   gradientUnits="userSpaceOnUse"
   x1="0.187"
   y1="129.1914"
   x2="63.144"
   y2="129.1914">
				<stop
   offset="0"
   style="stop-color:#76A5D8"
   id="stop215" />
				<stop
   offset="0.45"
   style="stop-color:#DAE3EC"
   id="stop217" />
				<stop
   offset="1"
   style="stop-color:#3F87C7"
   id="stop219" />
			</linearGradient>
			<path
   d="M62.56,135.275c-14.332-9.645-29.185-17.012-61.874-3.73c-0.225-0.133-0.567-0.453-0.487-0.875     c33.192-14.129,48.613-5.875,62.945,3.773C62.998,134.955,62.718,135.146,62.56,135.275z"
   id="path221"
   fill="url(#XMLID_52_)" />
			<path
   clip-rule="evenodd"
   d="M1.615,132.232c31.464-12.301,45.567-5.602,59.892,3.621     c-8.58-5.523-17.41-9.945-29.594-10.02c-8.154-0.047-17.791,2.023-29.851,6.699C2.062,132.533,1.813,132.439,1.615,132.232z"
   id="path223"
   fill-rule="evenodd"
   fill="#313C7E" />
			<path
   clip-rule="evenodd"
   d="M62.577,135.271l-1.159,0.605     c-14.325-9.223-28.823-15.598-59.737-3.602l-1.022-0.746C33.348,118.244,48.246,125.623,62.577,135.271z"
   id="path225"
   fill-rule="evenodd"
   fill="#2E499E" />
			<path
   clip-rule="evenodd"
   d="M63.115,134.459l16.527-56.567     c0.177,0.123,0.271,0.219,0.363,0.324l-16.542,56.637C63.37,134.615,63.115,134.459,63.115,134.459z"
   id="path227"
   fill-rule="evenodd"
   fill="#313C7E" />
			<path
   clip-rule="evenodd"
   d="M79.635,77.919c-14.318-9.704-30.467-16.728-63.403-3.285     c0.082-0.281,0.149-0.414,0.149-0.414c33.081-13.678,49.056-6.416,63.373,3.289L79.635,77.919z"
   id="path229"
   fill-rule="evenodd"
   fill="#3F87C7" />
			<g
   id="g231">
				<defs
   id="defs233">
					<path
   id="XMLID_16_"
   d="M63.135,134.475c-14.331-9.648-29.868-17.465-62.942-3.793l16.045-56.079       c33.079-13.68,49.107-6.4,63.426,3.303L63.135,134.475z" />
				</defs>
				<clipPath
   id="XMLID_53_">
					<use
   xlink:href="#XMLID_16_"
   id="use237" />
				</clipPath>
				<g
   clip-path="url(#XMLID_53_)"
   id="g239">
					<g
   id="g241">
						<linearGradient
   id="XMLID_54_"
   gradientUnits="userSpaceOnUse"
   x1="70.1611"
   y1="110.9561"
   x2="10.6821"
   y2="93.9007">
							<stop
   offset="0"
   style="stop-color:#2E499E"
   id="stop244" />
							<stop
   offset="0.4"
   style="stop-color:#4496D1"
   id="stop246" />
							<stop
   offset="0.725"
   style="stop-color:#A5CDED"
   id="stop248" />
							<stop
   offset="1"
   style="stop-color:#007FC4"
   id="stop250" />
						</linearGradient>
						<path
   d="M63.141,134.596c-14.331-9.645-29.91-17.578-62.984-3.902l16.195-56.567        c33.081-13.678,48.973-5.938,63.29,3.766L63.141,134.596z"
   id="path252"
   fill="url(#XMLID_54_)" />
						<path
   d="M63.141,134.596c-14.331-9.645-29.91-17.578-62.984-3.902l16.195-56.567        c33.081-13.678,48.973-5.938,63.29,3.766L63.141,134.596z"
   id="path254"
   fill="none" />
					</g>
				</g>
			</g>
			<path
   clip-rule="evenodd"
   d="M79.749,77.505l0.027,0.016     c0.204,0.145,0.287,0.426,0.229,0.695l-0.012,0.035c-0.091-0.104-0.186-0.203-0.362-0.326L79.749,77.505z"
   id="path256"
   fill-rule="evenodd"
   fill="#313C7E" />
		</g>
		<linearGradient
   id="XMLID_55_"
   gradientUnits="userSpaceOnUse"
   x1="16.2466"
   y1="74.2124"
   x2="16.2466"
   y2="74.6206">
			<stop
   offset="0"
   style="stop-color:#76A5D8"
   id="stop259" />
			<stop
   offset="1"
   style="stop-color:#2E499E"
   id="stop261" />
		</linearGradient>
		<path
   clip-rule="evenodd"
   d="M16.265,74.621l-0.181-0.053    c0.069-0.238,0.232-0.32,0.297-0.348l0.027-0.008C16.409,74.212,16.348,74.337,16.265,74.621z"
   id="path263"
   fill-rule="evenodd"
   fill="url(#XMLID_55_)" />
	</g>
	<g
   id="g265">
		<path
   clip-rule="evenodd"
   d="M81.828,68.497C66.43,57.811,47.556,51.1,19.527,65.029    l1.146,0.809c30.627-12.517,46.605-5.742,60.041,3.108L81.828,68.497z"
   id="path267"
   fill-rule="evenodd"
   fill="#D75329" />
		<path
   clip-rule="evenodd"
   d="M82.368,67.668l16.27-56.174c0.176,0.12,0.262,0.236,0.355,0.34    L82.716,68.056C82.623,67.82,82.368,67.668,82.368,67.668z"
   id="path269"
   fill-rule="evenodd"
   fill="#AB4533" />
		<path
   clip-rule="evenodd"
   d="M20.683,65.82c5.212-2.138,10.039-3.725,14.518-4.814    c1.086-0.263,2.051-0.501,3.197-0.722c1.055-0.21,2.097-0.415,3.116-0.565c1.597-0.244,3.146-0.445,4.654-0.561    c1.29-0.102,2.545-0.177,3.774-0.188c1.188-0.014,2.349,0.002,3.483,0.067c1.01,0.058,1.998,0.131,2.971,0.246    c0.822,0.096,1.626,0.197,2.421,0.334c1.679,0.288,3.301,0.642,4.869,1.087c6.332,1.791,11.956,4.844,17.127,8.292    c-0.034,0.016-0.158-0.036-0.212-0.065c-0.05-0.024-0.073-0.026-0.117-0.056c-6.991-4.432-14.502-8.286-23.77-9.423    c-9.486-1.166-20.54,0.467-35.433,6.378c0,0-0.347,0.147-0.479,0.171C20.683,66.02,20.705,65.929,20.683,65.82z"
   id="path271"
   fill-rule="evenodd"
   fill="#AB4533" />
		<path
   d="M81.802,68.487c0,0,0.221,0.155,0.471,0.098l-1.027,0.453c-0.277,0.081-0.606-0.09-0.606-0.09    L81.802,68.487z"
   id="path273"
   fill="#AB4533" />
		<path
   d="M20.697,65.83c0,0,0.063,0.105,0.105,0.173c-0.101,0.014-0.113,0.04-0.362-0.071    c-0.033-0.013-0.083-0.054-0.124-0.072l-1.063-0.836l-0.096-0.079c0.145-0.01,0.256,0.06,0.329,0.046L20.697,65.83z"
   id="path275"
   fill="#AB4533" />
		<path
   d="M82.379,67.67c0.114,0.076,0.25,0.121,0.345,0.357c-0.063,0.299-0.317,0.449-0.459,0.559    c-0.252,0.071-0.501-0.123-0.501-0.123C81.923,68.336,82.215,68.156,82.379,67.67z"
   id="path277"
   fill="#D75329" />
		<path
   clip-rule="evenodd"
   d="M98.747,11.129l0.02,0.012c0.201,0.144,0.285,0.426,0.227,0.693    l-0.01,0.036c-0.094-0.105-0.154-0.209-0.338-0.348L98.747,11.129z"
   id="path279"
   fill-rule="evenodd"
   fill="#D75329" />
		<path
   clip-rule="evenodd"
   d="M19.179,64.975c-0.154-0.121-0.309-0.594-0.229-0.882    l0.216-0.075c-0.08,0.417,0.178,0.892,0.402,1.021C19.569,65.039,19.411,65.128,19.179,64.975z"
   id="path281"
   fill-rule="evenodd"
   fill="#D75329" />
		<g
   id="g283">
			<defs
   id="defs285">
				<path
   id="XMLID_20_"
   d="M35.432,7.781L35.25,7.729c0.07-0.238,0.234-0.323,0.298-0.35l0.027-0.008      C35.576,7.372,35.515,7.497,35.432,7.781z" />
			</defs>
			<clipPath
   id="XMLID_56_">
				<use
   xlink:href="#XMLID_20_"
   id="use289" />
			</clipPath>
			
				<rect
   x="35.25"
   y="7.372"
   clip-path="url(#XMLID_56_)"
   clip-rule="evenodd"
   width="0.325"
   height="0.024"
   id="rect291"
   fill-rule="evenodd"
   fill="#FAAA4F" />
			
				<rect
   x="35.25"
   y="7.396"
   clip-path="url(#XMLID_56_)"
   clip-rule="evenodd"
   width="0.325"
   height="0.027"
   id="rect293"
   fill-rule="evenodd"
   fill="#F6A34C" />
			
				<rect
   x="35.25"
   y="7.423"
   clip-path="url(#XMLID_56_)"
   clip-rule="evenodd"
   width="0.325"
   height="0.024"
   id="rect295"
   fill-rule="evenodd"
   fill="#F39D48" />
			
				<rect
   x="35.25"
   y="7.448"
   clip-path="url(#XMLID_56_)"
   clip-rule="evenodd"
   width="0.325"
   height="0.027"
   id="rect297"
   fill-rule="evenodd"
   fill="#F09745" />
			
				<rect
   x="35.25"
   y="7.475"
   clip-path="url(#XMLID_56_)"
   clip-rule="evenodd"
   width="0.325"
   height="0.025"
   id="rect299"
   fill-rule="evenodd"
   fill="#ED9142" />
			
				<rect
   x="35.25"
   y="7.5"
   clip-path="url(#XMLID_56_)"
   clip-rule="evenodd"
   width="0.325"
   height="0.024"
   id="rect301"
   fill-rule="evenodd"
   fill="#EB8C3F" />
			
				<rect
   x="35.25"
   y="7.525"
   clip-path="url(#XMLID_56_)"
   clip-rule="evenodd"
   width="0.325"
   height="0.025"
   id="rect303"
   fill-rule="evenodd"
   fill="#E8863C" />
			
				<rect
   x="35.25"
   y="7.55"
   clip-path="url(#XMLID_56_)"
   clip-rule="evenodd"
   width="0.325"
   height="0.024"
   id="rect305"
   fill-rule="evenodd"
   fill="#E68139" />
			
				<rect
   x="35.25"
   y="7.575"
   clip-path="url(#XMLID_56_)"
   clip-rule="evenodd"
   width="0.325"
   height="0.025"
   id="rect307"
   fill-rule="evenodd"
   fill="#E57B37" />
			
				<rect
   x="35.25"
   y="7.6"
   clip-path="url(#XMLID_56_)"
   clip-rule="evenodd"
   width="0.325"
   height="0.025"
   id="rect309"
   fill-rule="evenodd"
   fill="#E27634" />
			
				<rect
   x="35.25"
   y="7.625"
   clip-path="url(#XMLID_56_)"
   clip-rule="evenodd"
   width="0.325"
   height="0.026"
   id="rect311"
   fill-rule="evenodd"
   fill="#E07132" />
			
				<rect
   x="35.25"
   y="7.652"
   clip-path="url(#XMLID_56_)"
   clip-rule="evenodd"
   width="0.325"
   height="0.025"
   id="rect313"
   fill-rule="evenodd"
   fill="#DF6B30" />
			
				<rect
   x="35.25"
   y="7.677"
   clip-path="url(#XMLID_56_)"
   clip-rule="evenodd"
   width="0.325"
   height="0.024"
   id="rect315"
   fill-rule="evenodd"
   fill="#DC662E" />
			
				<rect
   x="35.25"
   y="7.702"
   clip-path="url(#XMLID_56_)"
   clip-rule="evenodd"
   width="0.325"
   height="0.027"
   id="rect317"
   fill-rule="evenodd"
   fill="#DB602C" />
			
				<rect
   x="35.25"
   y="7.729"
   clip-path="url(#XMLID_56_)"
   clip-rule="evenodd"
   width="0.325"
   height="0.024"
   id="rect319"
   fill-rule="evenodd"
   fill="#D95A2A" />
			
				<rect
   x="35.25"
   y="7.753"
   clip-path="url(#XMLID_56_)"
   clip-rule="evenodd"
   width="0.325"
   height="0.027"
   id="rect321"
   fill-rule="evenodd"
   fill="#D75329" />
		</g>
		<linearGradient
   id="XMLID_57_"
   gradientUnits="userSpaceOnUse"
   x1="19.1108"
   y1="62.3535"
   x2="82.3872"
   y2="62.3535">
			<stop
   offset="0"
   style="stop-color:#FAAB4F"
   id="stop324" />
			<stop
   offset="0.25"
   style="stop-color:#FAAB4F"
   id="stop326" />
			<stop
   offset="0.475"
   style="stop-color:#FCC193"
   id="stop328" />
			<stop
   offset="0.525"
   style="stop-color:#FCC193"
   id="stop330" />
			<stop
   offset="0.75"
   style="stop-color:#F89C3E"
   id="stop332" />
			<stop
   offset="1"
   style="stop-color:#F89C3E"
   id="stop334" />
		</linearGradient>
		<path
   d="M81.798,68.491c-8.814-5.762-17.065-10.532-30.13-10.908c-9.554,0.189-16.878,1.406-32.113,7.457    c-0.225-0.128-0.51-0.447-0.431-0.866c13.191-5.617,23.663-8.04,32.354-7.955c13.16,0.131,22.283,5.637,30.909,11.44    C82.241,68.167,81.957,68.362,81.798,68.491z"
   id="path336"
   fill="url(#XMLID_57_)" />
		<path
   clip-rule="evenodd"
   d="M35.255,7.719l0.151,0.048L19.161,64.155    c-0.037-0.016-0.21-0.062-0.21-0.062L35.255,7.719z"
   id="path338"
   fill-rule="evenodd"
   fill="#D75329" />
		<path
   clip-rule="evenodd"
   d="M98.641,11.559C84.333,1.864,68.303-5.622,35.39,7.811    c0.084-0.282,0.158-0.432,0.158-0.432c33.059-13.667,48.907-5.937,63.218,3.762L98.641,11.559z"
   id="path340"
   fill-rule="evenodd"
   fill="#F89C3E" />
		<linearGradient
   id="XMLID_58_"
   gradientUnits="userSpaceOnUse"
   x1="89.1865"
   y1="44.5288"
   x2="29.654"
   y2="27.4581">
			<stop
   offset="0"
   style="stop-color:#CD2B2B"
   id="stop343" />
			<stop
   offset="0.4"
   style="stop-color:#F2692A"
   id="stop345" />
			<stop
   offset="0.725"
   style="stop-color:#FCB544"
   id="stop347" />
			<stop
   offset="1"
   style="stop-color:#F37237"
   id="stop349" />
		</linearGradient>
		<path
   d="M82.392,67.68c-8.628-5.81-17.907-11.233-31.085-11.333c-8.695-0.067-19.045,2.403-32.184,7.836    L35.406,7.761c33.059-13.669,48.938-5.933,63.245,3.764L82.392,67.68z"
   id="path351"
   fill="url(#XMLID_58_)" />
	</g>
	<g
   id="g353">
		<linearGradient
   id="XMLID_59_"
   gradientUnits="userSpaceOnUse"
   x1="137.6787"
   y1="144.4785"
   x2="137.3417"
   y2="145.7364">
			<stop
   offset="0"
   style="stop-color:#D4A52E"
   id="stop356" />
			<stop
   offset="1"
   style="stop-color:#A87C3C"
   id="stop358" />
		</linearGradient>
		<path
   clip-rule="evenodd"
   d="M137.993,145.178c-0.16,0.297-0.449,0.473-0.545,0.523    c-0.021,0.012-0.035,0.012-0.035,0.012s-0.275,0.035-0.525-0.164c0.645-0.352,0.836-1.059,0.836-1.059    S138.096,144.807,137.993,145.178z"
   id="path360"
   fill-rule="evenodd"
   fill="url(#XMLID_59_)" />
		<path
   clip-rule="evenodd"
   d="M137.993,145.178c0.039-0.32-0.305-0.59-0.305-0.59    l15.668-54.613c0,0,0.262,0.23,0.334,0.402L137.993,145.178z"
   id="path362"
   fill-rule="evenodd"
   fill="#D4A52E" />
		<linearGradient
   id="XMLID_60_"
   gradientUnits="userSpaceOnUse"
   x1="153.5293"
   y1="89.3652"
   x2="153.5293"
   y2="90.4004">
			<stop
   offset="0.0056"
   style="stop-color:#C19236"
   id="stop365" />
			<stop
   offset="1"
   style="stop-color:#D4A52E"
   id="stop367" />
		</linearGradient>
		<path
   clip-rule="evenodd"
   d="M153.68,90.4c0,0-0.051-0.156-0.332-0.391    c0.129-0.531,0.039-0.645,0.039-0.645l0.025,0.016C153.413,89.381,153.825,89.76,153.68,90.4z"
   id="path369"
   fill-rule="evenodd"
   fill="url(#XMLID_60_)" />
		<linearGradient
   id="XMLID_61_"
   gradientUnits="userSpaceOnUse"
   x1="151.23"
   y1="88.1416"
   x2="151.8813"
   y2="89.2256">
			<stop
   offset="0.0056"
   style="stop-color:#FFCD02"
   id="stop372" />
			<stop
   offset="1"
   style="stop-color:#A87C3C"
   id="stop374" />
		</linearGradient>
		<path
   clip-rule="evenodd"
   d="M152.118,89.084c0,0-0.434-0.527-1.316-0.363    c0.047-0.199,0.121-0.441,0.402-0.555c0.533-0.082,0.789,0.059,0.902,0.168c0.064,0.066,0.082,0.113,0.082,0.113    C152.258,88.76,152.118,89.084,152.118,89.084z"
   id="path376"
   fill-rule="evenodd"
   fill="url(#XMLID_61_)" />
		<linearGradient
   id="XMLID_62_"
   gradientUnits="userSpaceOnUse"
   x1="152.9268"
   y1="88.9727"
   x2="152.5281"
   y2="89.4478">
			<stop
   offset="0.0056"
   style="stop-color:#FFCD02"
   id="stop379" />
			<stop
   offset="1"
   style="stop-color:#A87C3C"
   id="stop381" />
		</linearGradient>
		<path
   clip-rule="evenodd"
   d="M152.106,88.334l1.307,1.047    c0.076,0.355-0.064,0.707-0.064,0.707l-1.301-1.043C152.047,89.045,152.176,88.646,152.106,88.334z"
   id="path383"
   fill-rule="evenodd"
   fill="url(#XMLID_62_)" />
		<polygon
   clip-rule="evenodd"
   points="136.288,143.584 152.042,88.963 153.372,90.025     137.723,144.619 137.661,144.768   "
   id="polygon385"
   fill-rule="evenodd"
   fill="#A87C3C" />
		<linearGradient
   id="XMLID_63_"
   gradientUnits="userSpaceOnUse"
   x1="136.3667"
   y1="143.9033"
   x2="134.9541"
   y2="143.8046">
			<stop
   offset="0"
   style="stop-color:#C19236"
   id="stop388" />
			<stop
   offset="1"
   style="stop-color:#FFCD02"
   id="stop390" />
		</linearGradient>
		<path
   d="M135.516,144.564c0,0-0.629-0.563-0.516-1.395c0.848-0.215,1.395,0.32,1.395,0.32    S136.239,144.248,135.516,144.564z"
   id="path392"
   fill="url(#XMLID_63_)" />
		<path
   d="M150.856,88.775c-33.176,11.301-48.441,4.547-62.754-5.086c0.034-0.129,0.122-0.34,0.025-0.578    c14.313,9.633,30.143,16.211,63.076,5.055C150.954,88.338,150.922,88.572,150.856,88.775z"
   id="path394"
   fill="#FFCD02" />
		<polygon
   clip-rule="evenodd"
   points="85.601,84.389 86.778,83.533 70.757,139.26     69.513,140.244 69.516,140.111   "
   id="polygon396"
   fill-rule="evenodd"
   fill="#D4A52E" />
		<linearGradient
   id="XMLID_64_"
   gradientUnits="userSpaceOnUse"
   x1="80.1714"
   y1="111.6348"
   x2="78.6929"
   y2="111.2108">
			<stop
   offset="0"
   style="stop-color:#D4A52E"
   id="stop399" />
			<stop
   offset="0.1"
   style="stop-color:#D4A52E"
   id="stop401" />
			<stop
   offset="0.2"
   style="stop-color:#FFC222"
   id="stop403" />
			<stop
   offset="0.35"
   style="stop-color:#FFC222"
   id="stop405" />
			<stop
   offset="1"
   style="stop-color:#D4A52E"
   id="stop407" />
		</linearGradient>
		<path
   d="M72.12,139.525c-0.467-0.277-1.011-0.488-1.457-0.309l16.063-55.66    c0.25-0.105,0.844-0.27,1.453,0.156L72.12,139.525z"
   id="path409"
   fill="url(#XMLID_64_)" />
		<linearGradient
   id="XMLID_65_"
   gradientUnits="userSpaceOnUse"
   x1="144.2988"
   y1="116.2773"
   x2="142.8982"
   y2="115.8757">
			<stop
   offset="0"
   style="stop-color:#A87C3C"
   id="stop412" />
			<stop
   offset="1"
   style="stop-color:#FFD200"
   id="stop414" />
		</linearGradient>
		<path
   d="M135.04,143.283l15.758-54.582c0.029-0.008,0.068-0.047,0.094-0.051    c0.838-0.086,1.227,0.359,1.227,0.359l-15.715,54.496C136.403,143.506,135.739,142.99,135.04,143.283z"
   id="path416"
   fill="url(#XMLID_65_)" />
		<path
   clip-rule="evenodd"
   d="M137.448,145.701c-32.396,13.848-53.176,5.332-67.489-4.305    l0.15-0.125c14.313,9.633,36.339,17.656,66.778,4.219C137.139,145.689,137.448,145.701,137.448,145.701z"
   id="path418"
   fill-rule="evenodd"
   fill="#A87C3C" />
		<linearGradient
   id="XMLID_66_"
   gradientUnits="userSpaceOnUse"
   x1="136.9546"
   y1="143.748"
   x2="136.2509"
   y2="145.3285">
			<stop
   offset="0"
   style="stop-color:#C19236"
   id="stop421" />
			<stop
   offset="1"
   style="stop-color:#D4A52E"
   id="stop423" />
		</linearGradient>
		<path
   clip-rule="evenodd"
   d="M136.393,143.498l1.334,1.121    c0,0-0.18,0.648-0.902,0.965l-1.355-1.125C136.192,144.143,136.393,143.498,136.393,143.498z"
   id="path425"
   fill-rule="evenodd"
   fill="url(#XMLID_66_)" />
		<linearGradient
   id="XMLID_67_"
   gradientUnits="userSpaceOnUse"
   x1="71.437"
   y1="145.625"
   x2="135.6938"
   y2="145.625">
			<stop
   offset="0"
   style="stop-color:#D4A52E"
   id="stop428" />
			<stop
   offset="0.4"
   style="stop-color:#FFD200"
   id="stop430" />
			<stop
   offset="1"
   style="stop-color:#D4A52E"
   id="stop432" />
		</linearGradient>
		<path
   d="M135.196,143.154c-0.113,0.832,0.498,1.434,0.498,1.434c-33.037,13.664-49.957,5.473-64.257-4.219    c0.252-0.184,0.375-0.344,0.536-0.922c0.021,0.012,0.221-0.02,0.241-0.008C86.975,148.529,105.868,155.713,135.196,143.154z"
   id="path434"
   fill="url(#XMLID_67_)" />
		<path
   clip-rule="evenodd"
   d="M70.115,141.326l1.322-0.957    c13.117,8.18,31.501,17.141,64.114,4.055l1.348,1.125C106.586,158.975,84.428,150.963,70.115,141.326z"
   id="path436"
   fill-rule="evenodd"
   fill="#C19236" />
		<path
   clip-rule="evenodd"
   d="M70.227,141.369l-0.15,0.105c0,0-0.87-0.48-0.561-1.363    C69.587,140.982,70.227,141.369,70.227,141.369z"
   id="path438"
   fill-rule="evenodd"
   fill="#D4A52E" />
		<linearGradient
   id="XMLID_68_"
   gradientUnits="userSpaceOnUse"
   x1="70.9922"
   y1="140.8633"
   x2="69.9571"
   y2="139.7137">
			<stop
   offset="0"
   style="stop-color:#D4A52E"
   id="stop441" />
			<stop
   offset="0.1"
   style="stop-color:#D4A52E"
   id="stop443" />
			<stop
   offset="0.7"
   style="stop-color:#FFD200"
   id="stop445" />
			<stop
   offset="1"
   style="stop-color:#D4A52E"
   id="stop447" />
		</linearGradient>
		<path
   d="M69.516,140.111l1.242-1.016c-0.068,0.91,0.813,1.246,0.813,1.246l-1.364,1.043    C70.208,141.385,69.447,141.018,69.516,140.111z"
   id="path449"
   fill="url(#XMLID_68_)" />
		<linearGradient
   id="XMLID_69_"
   gradientUnits="userSpaceOnUse"
   x1="71.0225"
   y1="138.9336"
   x2="71.7549"
   y2="140.2549">
			<stop
   offset="0"
   style="stop-color:#D4A52E"
   id="stop452" />
			<stop
   offset="0.4"
   style="stop-color:#FFC222"
   id="stop454" />
			<stop
   offset="0.8"
   style="stop-color:#FFCD02"
   id="stop456" />
			<stop
   offset="1"
   style="stop-color:#D4A52E"
   id="stop458" />
		</linearGradient>
		<path
   d="M70.666,139.131c0.445-0.18,0.862,0.031,1.331,0.305c-0.163,0.582-0.261,0.785-0.513,0.969    C71.19,140.229,70.591,139.869,70.666,139.131z"
   id="path460"
   fill="url(#XMLID_69_)" />
		<g
   id="g462">
			<defs
   id="defs464">
				<path
   id="XMLID_35_"
   d="M88.131,83.682c14.313,9.633,29.822,16.309,62.76,4.969l-15.703,54.578      c-28.98,12.742-48.541,5.09-63.201-3.77L88.131,83.682z" />
			</defs>
			<clipPath
   id="XMLID_70_">
				<use
   xlink:href="#XMLID_35_"
   id="use468" />
			</clipPath>
			<linearGradient
   id="XMLID_71_"
   gradientUnits="userSpaceOnUse"
   x1="140.9658"
   y1="123.625"
   x2="81.423"
   y2="106.5514">
				<stop
   offset="0"
   style="stop-color:#FFC907"
   id="stop471" />
				<stop
   offset="0.1667"
   style="stop-color:#FFD200"
   id="stop473" />
				<stop
   offset="0.3333"
   style="stop-color:#FFD952"
   id="stop475" />
				<stop
   offset="0.625"
   style="stop-color:#FFCD02"
   id="stop477" />
				<stop
   offset="1"
   style="stop-color:#B77A36"
   id="stop479" />
			</linearGradient>
			<path
   clip-path="url(#XMLID_70_)"
   d="M88.226,83.334c14.313,9.637,30.212,17.313,63.243,3.66     l-16.281,56.234c-33.037,13.664-48.903,5.926-63.201-3.77L88.226,83.334z"
   id="path481"
   fill="url(#XMLID_71_)" />
			<path
   clip-path="url(#XMLID_70_)"
   d="M88.226,83.334c14.313,9.637,30.212,17.313,63.243,3.66l-16.281,56.234     c-33.037,13.664-48.903,5.926-63.201-3.77L88.226,83.334z"
   id="path483"
   fill="none" />
		</g>
		<path
   clip-rule="evenodd"
   d="M86.933,83.182l-0.17,0.398l-1.178,0.852    c0.076-0.355,0.984-1.012,1.264-1.207C86.886,83.197,86.933,83.182,86.933,83.182z"
   id="path485"
   fill-rule="evenodd"
   fill="#FFCD02" />
		<linearGradient
   id="XMLID_72_"
   gradientUnits="userSpaceOnUse"
   x1="88.188"
   y1="83.3682"
   x2="86.717"
   y2="83.2653">
			<stop
   offset="0"
   style="stop-color:#FFC222"
   id="stop488" />
			<stop
   offset="0.2"
   style="stop-color:#FFC222"
   id="stop490" />
			<stop
   offset="0.525"
   style="stop-color:#FFD200"
   id="stop492" />
			<stop
   offset="1"
   style="stop-color:#D4A52E"
   id="stop494" />
		</linearGradient>
		<path
   d="M88.133,83.686c-0.657-0.383-1.193-0.152-1.443-0.043c0.039-0.121,0.174-0.426,0.174-0.426    c0.532-0.34,0.774-0.34,1.271-0.102C88.231,83.35,88.168,83.537,88.133,83.686z"
   id="path496"
   fill="url(#XMLID_72_)" />
	</g>
</g>
</svg>